<svg width="177" height="50" viewBox="0 0 177 50" fill="none" xmlns="http://www.w3.org/2000/svg">
<g clip-path="url(#clip0_1_98)">
<path d="M19.8134 37.3881C17.1269 37.3881 14.3284 36.9403 11.6791 36.0075C4.32836 33.3955 0.0746286 27.5373 0.335823 20.3731C0.597017 12.8358 6.26866 4.32836 18.2836 2.38806L18.9925 6.82836C8.17164 8.58209 5 16.2687 4.85075 20.5224C4.58955 27.6493 9.96269 30.6343 13.209 31.7537C19.8881 34.1045 27.9478 32.5373 31.194 28.2463C32.4254 26.6418 32.8358 24.5522 32.2388 22.9478C31.7164 21.4925 30.6716 20.4104 29.3657 19.8881C27.9104 19.3284 26.194 19.4403 24.5896 20.2239L22.6119 16.194C25.3731 14.8134 28.3582 14.6642 31.0448 15.709C33.5821 16.7164 35.4851 18.7313 36.4925 21.3806C37.6119 24.403 36.9776 28.097 34.8134 30.9328C31.6418 35.1119 25.9328 37.3881 19.8134 37.3881Z" fill="url(#paint0_linear_1_98)"/>
<path d="M30 43.5448C28.1716 43.5448 26.3806 43.209 24.6642 42.5746C20.6343 41.0821 17.5 37.9478 16.2687 34.2164C14.5149 28.9179 15.2985 19.8134 22.6119 16.194L23.209 15.9328L25.1493 20L24.5896 20.2612C19.5896 22.7239 19.4776 29.6642 20.5224 32.7985C21.3433 35.2612 23.4702 37.3134 26.2313 38.3582C29.4403 39.5522 32.9105 39.1791 36.0075 37.3507C40.8582 34.4403 43.7313 27.5746 42.6866 21.3806C41.4552 14.1418 34.4403 6.41792 23.9179 6.41792C22.2015 6.41792 20.597 6.52986 19.0672 6.79105L18.6194 6.86567L17.7239 2.46269L18.3955 2.35075C20.1493 2.05224 22.0149 1.94031 23.9552 1.94031C36.9403 1.94031 45.597 11.5672 47.1642 20.6343C48.5448 28.694 44.8508 37.3507 38.3582 41.2313C35.709 42.7612 32.8358 43.5448 30 43.5448Z" fill="#47B3CE"/>
<path d="M21.306 49.8508C22.3776 49.8508 23.2463 48.982 23.2463 47.9104C23.2463 46.8388 22.3776 45.9702 21.306 45.9702C20.2344 45.9702 19.3657 46.8388 19.3657 47.9104C19.3657 48.982 20.2344 49.8508 21.306 49.8508Z" fill="#F4CF3B"/>
<path d="M83.1343 7.94777V27.7239H79.0298V25.3731C78.3955 26.194 77.5373 26.8284 76.4925 27.2761C75.4478 27.7612 74.3284 27.9851 73.1716 27.9851C71.6045 27.9851 70.2239 27.6493 68.9925 27.0149C67.7612 26.3806 66.791 25.4105 66.0821 24.1418C65.3731 22.8731 65.0373 21.3433 65.0373 19.5522V7.91046H69.1045V18.9179C69.1045 20.6717 69.5522 22.0523 70.4478 22.9851C71.3433 23.9179 72.5373 24.403 74.0672 24.403C75.597 24.403 76.8284 23.9179 77.7239 22.9851C78.6194 22.0523 79.0672 20.6717 79.0672 18.9179V7.91046H83.1343V7.94777Z" fill="white"/>
<path d="M105.299 17.0523C106.231 18.209 106.716 19.5523 106.716 21.0448C106.716 22.3134 106.381 23.4702 105.746 24.4776C105.075 25.4851 104.142 26.306 102.91 26.8657C101.679 27.4627 100.224 27.7612 98.5821 27.7612H88.6194V2.79852H98.1343C99.8134 2.79852 101.306 3.09703 102.5 3.65673C103.731 4.21643 104.627 5.00002 105.261 5.97017C105.896 6.94031 106.194 8.02241 106.194 9.21644C106.194 10.6343 105.821 11.8657 105.037 12.7985C104.254 13.7687 103.246 14.4776 101.94 14.9254C103.209 15.1493 104.366 15.8582 105.299 17.0523ZM92.6119 13.2836H97.6866C99.0299 13.2836 100.075 12.9851 100.821 12.3508C101.567 11.7537 101.94 10.8582 101.94 9.70151C101.94 8.58211 101.567 7.68658 100.821 7.05225C100.075 6.41792 99.0299 6.0821 97.6866 6.0821H92.6119V13.2836ZM101.418 23.3955C102.201 22.7239 102.612 21.7911 102.612 20.597C102.612 19.3657 102.201 18.3955 101.343 17.6866C100.522 16.9776 99.403 16.6045 98.0224 16.6045H92.6493V24.403H98.1716C99.5522 24.403 100.634 24.0672 101.418 23.3955Z" fill="white"/>
<path d="M117.612 8.47015C118.619 7.91045 119.776 7.61194 121.157 7.61194V11.8657H120.112C118.507 11.8657 117.276 12.2761 116.455 13.097C115.634 13.9179 115.224 15.3358 115.224 17.3507V27.7612H111.119V7.98507H115.224V10.8582C115.821 9.81344 116.642 9.02986 117.612 8.47015Z" fill="white"/>
<path d="M124.813 12.5C125.634 10.9702 126.754 9.77612 128.172 8.91792C129.59 8.05971 131.157 7.64926 132.91 7.64926C134.478 7.64926 135.821 7.94777 136.978 8.5821C138.134 9.17911 139.067 9.9627 139.776 10.8582V7.98508H143.918V27.7612H139.776V24.8134C139.067 25.7463 138.134 26.5299 136.94 27.1642C135.746 27.7985 134.366 28.097 132.836 28.097C131.119 28.097 129.59 27.6493 128.172 26.791C126.754 25.9328 125.634 24.7015 124.813 23.1343C123.993 21.5672 123.582 19.7761 123.582 17.7985C123.582 15.7836 123.993 14.0299 124.813 12.5ZM138.918 14.291C138.358 13.2836 137.612 12.5373 136.716 11.9776C135.821 11.4552 134.813 11.194 133.769 11.194C132.724 11.194 131.754 11.4552 130.821 11.9776C129.925 12.5 129.179 13.2463 128.619 14.2537C128.06 15.2612 127.761 16.4179 127.761 17.7985C127.761 19.1791 128.06 20.3731 128.619 21.3806C129.179 22.4254 129.925 23.209 130.858 23.7314C131.791 24.2537 132.761 24.5522 133.769 24.5522C134.813 24.5522 135.821 24.2911 136.716 23.7687C137.612 23.2463 138.358 22.4627 138.918 21.4552C139.478 20.4478 139.776 19.2537 139.776 17.8731C139.776 16.4552 139.478 15.2985 138.918 14.291Z" fill="white"/>
<path d="M153.358 7.94778V27.7239H149.254V7.94778H153.358Z" fill="white"/>
<path d="M172.91 8.61941C174.142 9.25374 175.112 10.2239 175.784 11.4925C176.493 12.7612 176.828 14.2911 176.828 16.0821V27.7612H172.761V16.7164C172.761 14.9627 172.313 13.5821 171.418 12.6493C170.522 11.7164 169.328 11.2314 167.799 11.2314C166.269 11.2314 165.037 11.7164 164.142 12.6493C163.246 13.5821 162.799 14.9627 162.799 16.7164V27.7612H158.694V7.98508H162.799V10.2612C163.47 9.4403 164.328 8.80597 165.373 8.35821C166.418 7.91045 167.537 7.68657 168.694 7.68657C170.298 7.64926 171.679 7.94777 172.91 8.61941Z" fill="white"/>
<path d="M66.4925 44.1045C65.9328 43.8433 65.5224 43.5075 65.2239 43.097C64.9254 42.6493 64.7388 42.1642 64.7388 41.6045H66.194C66.2313 42.0896 66.4552 42.5 66.791 42.8358C67.1269 43.1717 67.6493 43.3209 68.3209 43.3209C68.9552 43.3209 69.4776 43.1717 69.8507 42.8358C70.2239 42.5 70.4105 42.0896 70.4105 41.6045C70.4105 41.1941 70.2985 40.8955 70.0746 40.6344C69.8508 40.3732 69.5896 40.1866 69.2537 40.0746C68.9179 39.9627 68.4702 39.8135 67.9105 39.6642C67.2388 39.4776 66.6791 39.2911 66.2687 39.1418C65.8582 38.9552 65.4851 38.6941 65.1866 38.2836C64.8881 37.9105 64.7388 37.3881 64.7388 36.7538C64.7388 36.1941 64.8881 35.6717 65.1866 35.2612C65.4851 34.8135 65.8955 34.4776 66.4179 34.2537C66.9403 34.0299 67.5373 33.8806 68.209 33.8806C69.1791 33.8806 70 34.1418 70.597 34.6269C71.2313 35.112 71.5672 35.7463 71.6418 36.5672H70.1493C70.1119 36.1567 69.8881 35.8209 69.5149 35.5224C69.1418 35.2239 68.6567 35.0746 68.0597 35.0746C67.5 35.0746 67.0149 35.2239 66.6791 35.5224C66.306 35.8209 66.1567 36.2314 66.1567 36.7538C66.1567 37.1269 66.2687 37.4254 66.4925 37.6866C66.7164 37.9105 66.9776 38.097 67.2761 38.2463C67.5746 38.3582 68.0224 38.5075 68.5821 38.6567C69.2537 38.8433 69.8134 39.0299 70.2239 39.2164C70.6343 39.403 71.0075 39.7015 71.306 40.0746C71.6045 40.4478 71.7537 40.9702 71.7537 41.6418C71.7537 42.1642 71.6045 42.612 71.3433 43.0597C71.0821 43.5075 70.6716 43.8806 70.1493 44.1418C69.6269 44.403 68.9925 44.5523 68.2836 44.5523C67.6493 44.4776 67.0149 44.3657 66.4925 44.1045Z" fill="#47B3CE"/>
<path d="M88.9179 33.9553V35.0747H86.0821V44.403H84.7015V35.0747H81.8283V33.9553H88.9179Z" fill="#47B3CE"/>
<path d="M100.597 33.9553V40.5597C100.597 41.4926 100.821 42.1642 101.269 42.612C101.716 43.0597 102.351 43.2836 103.172 43.2836C103.955 43.2836 104.59 43.0597 105.037 42.612C105.485 42.1642 105.709 41.4926 105.709 40.5597V33.9553H107.052V40.5224C107.052 41.3806 106.866 42.1269 106.53 42.7239C106.194 43.3209 105.709 43.7687 105.112 44.0672C104.515 44.3657 103.843 44.515 103.097 44.515C102.351 44.515 101.679 44.3657 101.119 44.0672C100.522 43.7687 100.037 43.3209 99.7015 42.7239C99.3657 42.1269 99.1791 41.418 99.1791 40.5224V33.9553H100.597Z" fill="#47B3CE"/>
<path d="M124.216 34.5896C125.037 35 125.672 35.6344 126.119 36.418C126.567 37.2015 126.791 38.1344 126.791 39.2165C126.791 40.2985 126.567 41.1941 126.119 41.9777C125.672 42.7612 125.037 43.3582 124.216 43.7687C123.396 44.1791 122.388 44.403 121.269 44.403H118.022V33.9553H121.269C122.425 33.9553 123.396 34.1418 124.216 34.5896ZM124.366 42.1642C125.075 41.4553 125.448 40.4478 125.448 39.1791C125.448 37.8732 125.075 36.8657 124.366 36.1568C123.657 35.4478 122.612 35.0747 121.306 35.0747H119.403V43.2836H121.306C122.612 43.2463 123.657 42.9105 124.366 42.1642Z" fill="#47B3CE"/>
<path d="M138.657 33.9553V44.3657H137.313V33.9553H138.657Z" fill="#47B3CE"/>
<path d="M151.716 43.806C150.933 43.3582 150.299 42.7239 149.813 41.903C149.366 41.0821 149.104 40.1866 149.104 39.1418C149.104 38.1344 149.328 37.2015 149.813 36.3806C150.261 35.5597 150.896 34.9254 151.716 34.4776C152.5 34.0299 153.396 33.806 154.366 33.806C155.336 33.806 156.231 34.0299 157.015 34.4776C157.799 34.9254 158.433 35.5597 158.918 36.3806C159.366 37.2015 159.59 38.097 159.59 39.1418C159.59 40.1866 159.366 41.0821 158.918 41.903C158.47 42.7239 157.836 43.3582 157.015 43.806C156.231 44.2538 155.336 44.4776 154.366 44.4776C153.396 44.4776 152.5 44.2538 151.716 43.806ZM156.343 42.7985C156.94 42.4627 157.388 41.9776 157.724 41.3433C158.06 40.709 158.209 40 158.209 39.1418C158.209 38.3209 158.06 37.5747 157.724 36.9403C157.388 36.306 156.94 35.8209 156.343 35.4851C155.746 35.1493 155.112 34.9627 154.366 34.9627C153.619 34.9627 152.985 35.1493 152.388 35.4851C151.791 35.8209 151.343 36.306 151.007 36.9403C150.672 37.5747 150.522 38.2836 150.522 39.1418C150.522 39.9627 150.672 40.709 151.007 41.3433C151.343 41.9776 151.791 42.4627 152.388 42.7985C152.985 43.1344 153.619 43.3209 154.366 43.3209C155.112 43.3209 155.746 43.1344 156.343 42.7985Z" fill="#47B3CE"/>
<path d="M171.53 44.1045C170.97 43.8433 170.56 43.5075 170.261 43.097C169.963 42.6493 169.776 42.1642 169.776 41.6045H171.231C171.269 42.0896 171.493 42.5 171.828 42.8358C172.164 43.1717 172.687 43.3209 173.358 43.3209C173.993 43.3209 174.515 43.1717 174.888 42.8358C175.261 42.5 175.448 42.0896 175.448 41.6045C175.448 41.1941 175.336 40.8955 175.112 40.6344C174.888 40.3732 174.627 40.1866 174.291 40.0746C173.955 39.9627 173.507 39.8135 172.948 39.6642C172.276 39.4776 171.716 39.2911 171.306 39.1418C170.896 38.9552 170.522 38.6941 170.224 38.2836C169.925 37.9105 169.776 37.3881 169.776 36.7538C169.776 36.1941 169.925 35.6717 170.224 35.2612C170.522 34.8135 170.933 34.4776 171.455 34.2537C171.978 34.0299 172.575 33.8806 173.246 33.8806C174.216 33.8806 175.037 34.1418 175.634 34.6269C176.269 35.112 176.604 35.7463 176.679 36.5672H175.187C175.149 36.1567 174.925 35.8209 174.552 35.5224C174.179 35.2239 173.694 35.0746 173.097 35.0746C172.537 35.0746 172.052 35.2239 171.716 35.5224C171.343 35.8209 171.194 36.2314 171.194 36.7538C171.194 37.1269 171.306 37.4254 171.53 37.6866C171.754 37.9105 172.015 38.097 172.313 38.2463C172.612 38.3582 173.06 38.5075 173.619 38.6567C174.291 38.8433 174.851 39.0299 175.261 39.2164C175.672 39.403 176.045 39.7015 176.343 40.0746C176.642 40.4478 176.791 40.9702 176.791 41.6418C176.791 42.1642 176.642 42.612 176.381 43.0597C176.119 43.5075 175.709 43.8806 175.187 44.1418C174.664 44.403 174.03 44.5523 173.321 44.5523C172.687 44.4776 172.09 44.3657 171.53 44.1045Z" fill="#47B3CE"/>
<path d="M149.478 4.58955C148.993 4.10448 148.731 3.47015 148.731 2.72388C148.731 1.97761 148.993 1.34328 149.478 0.858207C149.963 0.373133 150.597 0.111938 151.343 0.111938C152.052 0.111938 152.687 0.373133 153.172 0.858207C153.657 1.34328 153.918 1.97761 153.918 2.72388C153.918 3.47015 153.657 4.10448 153.172 4.58955C152.687 5.11194 152.052 5.33582 151.343 5.33582C150.597 5.33582 150 5.07463 149.478 4.58955Z" fill="#F4CF3B"/>
</g>
<defs>
<linearGradient id="paint0_linear_1_98" x1="11.9806" y1="28.7516" x2="22.279" y2="17.5169" gradientUnits="userSpaceOnUse">
<stop stop-color="#5E6AAE"/>
<stop offset="1" stop-color="#47B3CE"/>
</linearGradient>
<clipPath id="clip0_1_98">
<rect width="176.866" height="50" fill="white"/>
</clipPath>
</defs>
</svg>
