<svg width="500" height="151" viewBox="0 0 500 151" fill="none" xmlns="http://www.w3.org/2000/svg">
<path d="M179.591 87.6H162.391L158.151 100H147.191L167.351 43.6H175.431L195.591 100H184.071L179.591 87.6ZM165.191 78.8H177.191L173.031 66.32L171.351 57.52H170.951L169.271 66.4L165.191 78.8ZM200.189 60H207.789L208.989 64.8H209.309C210.696 62.7733 212.322 61.28 214.189 60.32C216.109 59.36 218.429 58.88 221.149 58.88C226.162 58.88 229.922 60.48 232.429 63.68C234.936 66.8267 236.189 71.92 236.189 78.96C236.189 82.3733 235.789 85.4667 234.989 88.24C234.189 90.96 232.989 93.28 231.389 95.2C229.842 97.12 227.922 98.5867 225.629 99.6C223.389 100.613 220.802 101.12 217.869 101.12C216.216 101.12 214.856 100.987 213.789 100.72C212.722 100.507 211.656 100.133 210.589 99.6V116H200.189V60ZM218.029 67.68C216.002 67.68 214.402 68.1867 213.229 69.2C212.109 70.2133 211.229 71.7333 210.589 73.76V90.4C211.336 90.9867 212.136 91.4667 212.989 91.84C213.896 92.16 215.069 92.32 216.509 92.32C219.496 92.32 221.736 91.28 223.229 89.2C224.722 87.0667 225.469 83.5733 225.469 78.72C225.469 75.2 224.882 72.48 223.709 70.56C222.536 68.64 220.642 67.68 218.029 67.68ZM243.392 60H250.992L252.192 64.8H252.512C253.899 62.7733 255.525 61.28 257.392 60.32C259.312 59.36 261.632 58.88 264.352 58.88C269.365 58.88 273.125 60.48 275.632 63.68C278.139 66.8267 279.392 71.92 279.392 78.96C279.392 82.3733 278.992 85.4667 278.192 88.24C277.392 90.96 276.192 93.28 274.592 95.2C273.045 97.12 271.125 98.5867 268.832 99.6C266.592 100.613 264.005 101.12 261.072 101.12C259.419 101.12 258.059 100.987 256.992 100.72C255.925 100.507 254.859 100.133 253.792 99.6V116H243.392V60ZM261.232 67.68C259.205 67.68 257.605 68.1867 256.432 69.2C255.312 70.2133 254.432 71.7333 253.792 73.76V90.4C254.539 90.9867 255.339 91.4667 256.192 91.84C257.099 92.16 258.272 92.32 259.712 92.32C262.699 92.32 264.939 91.28 266.432 89.2C267.925 87.0667 268.672 83.5733 268.672 78.72C268.672 75.2 268.085 72.48 266.912 70.56C265.739 68.64 263.845 67.68 261.232 67.68ZM284.675 80C284.675 73.2267 286.328 68.0267 289.635 64.4C292.942 60.72 297.582 58.88 303.555 58.88C306.755 58.88 309.528 59.3867 311.875 60.4C314.222 61.4133 316.168 62.8533 317.715 64.72C319.262 66.5333 320.408 68.7467 321.155 71.36C321.955 73.9733 322.355 76.8533 322.355 80C322.355 86.7733 320.702 92 317.395 95.68C314.142 99.3067 309.528 101.12 303.555 101.12C300.355 101.12 297.582 100.613 295.235 99.6C292.888 98.5867 290.915 97.1733 289.315 95.36C287.768 93.4933 286.595 91.2533 285.795 88.64C285.048 86.0267 284.675 83.1467 284.675 80ZM295.395 80C295.395 81.76 295.555 83.3867 295.875 84.88C296.195 86.3733 296.675 87.68 297.315 88.8C297.955 89.92 298.782 90.8 299.795 91.44C300.862 92.0267 302.115 92.32 303.555 92.32C306.275 92.32 308.302 91.3333 309.635 89.36C310.968 87.3867 311.635 84.2667 311.635 80C311.635 76.32 311.022 73.36 309.795 71.12C308.568 68.8267 306.488 67.68 303.555 67.68C300.995 67.68 298.995 68.64 297.555 70.56C296.115 72.48 295.395 75.6267 295.395 80ZM367.484 57.04C367.484 58.4267 367.297 59.8133 366.924 61.2C366.604 62.5867 366.044 63.8667 365.244 65.04C364.444 66.16 363.404 67.1733 362.124 68.08C360.844 68.9333 359.297 69.5733 357.484 70V70.48C359.084 70.7467 360.604 71.2 362.044 71.84C363.484 72.48 364.737 73.36 365.804 74.48C366.871 75.6 367.697 76.96 368.284 78.56C368.924 80.16 369.244 82.0533 369.244 84.24C369.244 87.12 368.631 89.6267 367.404 91.76C366.177 93.84 364.524 95.5467 362.444 96.88C360.417 98.2133 358.097 99.2 355.484 99.84C352.871 100.48 350.177 100.8 347.404 100.8C346.497 100.8 345.324 100.8 343.884 100.8C342.497 100.8 340.977 100.747 339.324 100.64C337.724 100.587 336.071 100.48 334.364 100.32C332.711 100.16 331.191 99.92 329.804 99.6V44.4C330.817 44.24 331.964 44.08 333.244 43.92C334.577 43.76 335.991 43.6267 337.484 43.52C338.977 43.4133 340.497 43.3333 342.044 43.28C343.644 43.2267 345.217 43.2 346.764 43.2C349.377 43.2 351.911 43.4133 354.364 43.84C356.871 44.2133 359.084 44.9067 361.004 45.92C362.977 46.9333 364.551 48.3467 365.724 50.16C366.897 51.9733 367.484 54.2667 367.484 57.04ZM347.484 91.76C348.817 91.76 350.097 91.6 351.324 91.28C352.604 90.96 353.724 90.48 354.684 89.84C355.644 89.1467 356.417 88.2933 357.004 87.28C357.591 86.2667 357.884 85.0667 357.884 83.68C357.884 81.92 357.537 80.5333 356.844 79.52C356.151 78.5067 355.244 77.7333 354.124 77.2C353.004 76.6133 351.751 76.24 350.364 76.08C348.977 75.92 347.591 75.84 346.204 75.84H340.364V91.28C340.631 91.3867 341.057 91.4667 341.644 91.52C342.231 91.5733 342.844 91.6267 343.484 91.68C344.177 91.68 344.871 91.7067 345.564 91.76C346.311 91.76 346.951 91.76 347.484 91.76ZM343.884 67.52C344.631 67.52 345.484 67.4933 346.444 67.44C347.457 67.3867 348.284 67.3067 348.924 67.2C350.951 66.56 352.684 65.6 354.124 64.32C355.617 63.04 356.364 61.36 356.364 59.28C356.364 57.8933 356.097 56.7467 355.564 55.84C355.031 54.9333 354.311 54.2133 353.404 53.68C352.551 53.1467 351.564 52.7733 350.444 52.56C349.324 52.3467 348.151 52.24 346.924 52.24C345.537 52.24 344.257 52.2667 343.084 52.32C341.911 52.3733 341.004 52.4533 340.364 52.56V67.52H343.884ZM374.91 80C374.91 73.2267 376.563 68.0267 379.87 64.4C383.176 60.72 387.816 58.88 393.79 58.88C396.99 58.88 399.763 59.3867 402.11 60.4C404.456 61.4133 406.403 62.8533 407.95 64.72C409.496 66.5333 410.643 68.7467 411.39 71.36C412.19 73.9733 412.59 76.8533 412.59 80C412.59 86.7733 410.936 92 407.63 95.68C404.376 99.3067 399.763 101.12 393.79 101.12C390.59 101.12 387.816 100.613 385.47 99.6C383.123 98.5867 381.15 97.1733 379.55 95.36C378.003 93.4933 376.83 91.2533 376.03 88.64C375.283 86.0267 374.91 83.1467 374.91 80ZM385.63 80C385.63 81.76 385.79 83.3867 386.11 84.88C386.43 86.3733 386.91 87.68 387.55 88.8C388.19 89.92 389.016 90.8 390.03 91.44C391.096 92.0267 392.35 92.32 393.79 92.32C396.51 92.32 398.536 91.3333 399.87 89.36C401.203 87.3867 401.87 84.2667 401.87 80C401.87 76.32 401.256 73.36 400.03 71.12C398.803 68.8267 396.723 67.68 393.79 67.68C391.23 67.68 389.23 68.64 387.79 70.56C386.35 72.48 385.63 75.6267 385.63 80ZM417.878 80C417.878 73.2267 419.532 68.0267 422.838 64.4C426.145 60.72 430.785 58.88 436.758 58.88C439.958 58.88 442.732 59.3867 445.078 60.4C447.425 61.4133 449.372 62.8533 450.918 64.72C452.465 66.5333 453.612 68.7467 454.358 71.36C455.158 73.9733 455.558 76.8533 455.558 80C455.558 86.7733 453.905 92 450.598 95.68C447.345 99.3067 442.732 101.12 436.758 101.12C433.558 101.12 430.785 100.613 428.438 99.6C426.092 98.5867 424.118 97.1733 422.518 95.36C420.972 93.4933 419.798 91.2533 418.998 88.64C418.252 86.0267 417.878 83.1467 417.878 80ZM428.598 80C428.598 81.76 428.758 83.3867 429.078 84.88C429.398 86.3733 429.878 87.68 430.518 88.8C431.158 89.92 431.985 90.8 432.998 91.44C434.065 92.0267 435.318 92.32 436.758 92.32C439.478 92.32 441.505 91.3333 442.838 89.36C444.172 87.3867 444.838 84.2667 444.838 80C444.838 76.32 444.225 73.36 442.998 71.12C441.772 68.8267 439.692 67.68 436.758 67.68C434.198 67.68 432.198 68.64 430.758 70.56C429.318 72.48 428.598 75.6267 428.598 80ZM475.967 83.44H473.167V100H462.767V44H473.167V77.04L475.567 75.92L484.687 60H496.127L486.527 75.2L482.447 78.24L486.847 81.36L497.647 100H485.727L475.967 83.44Z" fill="white"/>
<path d="M3 51.8987H56V126.379H5C3.89543 126.379 3 125.484 3 124.379V51.8987Z" fill="#37CAD1"/>
<path d="M3 26.8148C3 25.7103 3.89543 24.8148 5 24.8148H107C108.105 24.8148 109 25.7103 109 26.8148V51.8987H3V26.8148Z" fill="#37D1C4"/>
<path d="M109 126.379V128.879C110.381 128.879 111.5 127.76 111.5 126.379H109ZM18 27.3148H94V22.3148H18V27.3148ZM109 123.879H18V128.879H109V123.879ZM5.5 111.379V51.8987H0.5V111.379H5.5ZM5.5 51.8987V39.8148H0.5V51.8987H5.5ZM106.5 39.8149V51.8987H111.5V39.8149H106.5ZM106.5 51.8987V126.379H111.5V51.8987H106.5ZM3 54.3987H109V49.3987H3V54.3987ZM18 123.879C11.0964 123.879 5.5 118.283 5.5 111.379H0.5C0.5 121.044 8.33501 128.879 18 128.879V123.879ZM94 27.3148C100.904 27.3148 106.5 32.9113 106.5 39.8149H111.5C111.5 30.1499 103.665 22.3148 94 22.3148V27.3148ZM18 22.3148C8.33502 22.3148 0.5 30.1499 0.5 39.8148H5.5C5.5 32.9113 11.0964 27.3148 18 27.3148V22.3148Z" fill="white"/>
<path d="M36.125 18.0439V31.5858" stroke="white" stroke-width="5" stroke-linecap="round" stroke-linejoin="round"/>
<path d="M82.5 18.0439V31.5858" stroke="white" stroke-width="5" stroke-linecap="round" stroke-linejoin="round"/>
<path d="M16.25 92.5245L29.5 99.2954L42.75 72.2116" stroke="white" stroke-width="5" stroke-linecap="round" stroke-linejoin="round"/>
<path d="M56 51.8987V126.379" stroke="white" stroke-width="5"/>
<path d="M56 78.9825L109 78.9825" stroke="white" stroke-width="5"/>
<path d="M56 99.2954L109 99.2954" stroke="white" stroke-width="5"/>
</svg>
