<svg width="400" height="112" viewBox="0 0 400 112" fill="none" xmlns="http://www.w3.org/2000/svg">
<path d="M14.6345 46.8318C14.0694 62.4868 23.2963 75.2246 39.3389 80.9203C45.1162 82.9725 51.1525 83.9558 57.0522 83.9579C70.3326 83.9681 82.8072 78.9599 89.6086 69.9676C94.2965 63.7231 95.7123 55.7406 93.2153 49.1269C91.0835 43.3435 86.8505 38.9677 81.3731 36.7849C75.5857 34.4981 69.0679 34.8755 63.0152 37.8416L67.3461 46.632C70.8671 44.9041 74.5697 44.6491 77.7501 45.8976C80.6204 47.042 82.8623 49.4125 84.0333 52.5582C85.3348 56.0038 84.4494 60.5081 81.7831 64.0556C74.6921 73.4131 57.1195 76.8566 42.6049 71.7056C35.5853 69.1903 23.8798 62.6949 24.4285 47.2052C24.7529 37.9069 31.6645 21.1768 55.3081 17.3518L53.7352 7.66591C27.5477 11.907 15.2363 30.3996 14.6345 46.8318Z" fill="url(#paint0_linear_534_1023)"/>
<path d="M79.2052 97.365C75.253 97.365 71.3121 96.6731 67.5444 95.2722C58.7748 92.0127 51.9216 85.2172 49.2141 77.0931C45.3619 65.534 47.0953 45.719 63.0116 37.8584L67.3517 46.6459C56.4568 52.0267 56.2178 67.1129 58.5114 73.9938C60.2903 79.3298 64.9434 83.8504 70.9584 86.0863C77.9482 88.684 85.5104 87.9043 92.2498 83.8886C102.855 77.5712 109.095 62.611 106.764 49.0924C104.042 33.3037 88.7773 16.5239 65.8476 16.5239C62.1457 16.5239 58.5984 16.7947 55.3055 17.3296L53.7347 7.65593C57.5447 7.0372 61.6205 6.72336 65.8476 6.72336C94.1394 6.72336 113.02 27.6953 116.422 47.4272C119.454 65.0136 111.397 83.8895 97.2664 92.3078C91.6425 95.6576 85.4113 97.365 79.2052 97.365Z" fill="#41BCD7"/>
<path d="M64.5215 106.905C64.5215 109.236 62.6311 111.127 60.2993 111.127C57.9666 111.127 56.0771 109.236 56.0771 106.905C56.0771 104.573 57.9666 102.682 60.2993 102.682C62.6311 102.682 64.5215 104.573 64.5215 106.905Z" fill="#F8D038"/>
<path d="M195.01 19.8152V62.9175H186.091V57.8343C184.684 59.6068 182.851 61.0012 180.578 62.0167C178.311 63.0354 175.899 63.5444 173.345 63.5444C169.952 63.5444 166.916 62.8379 164.229 61.4313C161.543 60.0239 159.429 57.9392 157.895 55.1732C156.355 52.4096 155.584 49.0712 155.584 45.1588V19.8152H164.427V43.8287C164.427 47.6899 165.388 50.6494 167.316 52.7097C169.246 54.7691 171.882 55.8001 175.218 55.8001C178.56 55.8001 181.202 54.7691 183.162 52.7097C185.117 50.6494 186.091 47.6899 186.091 43.8287V19.8152H195.01Z" fill="white"/>
<path d="M234.83 53.4504C236.549 51.9926 237.408 49.9591 237.408 47.3484C237.408 44.6905 236.499 42.5766 234.671 41.0139C232.85 39.448 230.425 38.665 227.401 38.665H215.662V55.6408H227.713C230.737 55.6408 233.111 54.9114 234.83 53.4504ZM215.662 31.3914H226.694C229.616 31.3914 231.896 30.7263 233.538 29.3962C235.181 28.0652 236.002 26.1489 236.002 23.6471C236.002 21.1965 235.181 19.2802 233.538 17.898C231.896 16.5166 229.616 15.8231 226.694 15.8231H215.662V31.3914ZM243.279 39.6041C245.315 42.1603 246.328 45.0564 246.328 48.2875C246.328 51.0535 245.615 53.5431 244.176 55.7578C242.744 57.9767 240.668 59.7247 237.963 61.0012C235.244 62.2801 232.093 62.9168 228.496 62.9168H206.749V8.5495H227.478C231.176 8.5495 234.36 9.17311 237.021 10.4277C239.681 11.6789 241.687 13.3595 243.043 15.4735C244.399 17.5833 245.08 19.9453 245.08 22.5519C245.08 25.6814 244.246 28.288 242.578 30.3727C240.904 32.4614 238.663 33.9989 235.849 34.9884C238.765 35.5104 241.248 37.0511 243.279 39.6041Z" fill="white"/>
<path d="M270.15 20.9477C272.307 19.7225 274.88 19.1078 277.852 19.1078V28.3392H275.586C272.091 28.3392 269.443 29.2271 267.641 31.0003C265.846 32.7728 264.942 35.851 264.942 40.2309V62.9168H256.029V19.8143H264.942V26.0724C266.247 23.8829 267.985 22.173 270.15 20.9477Z" fill="white"/>
<path d="M316.541 33.5818C315.313 31.3922 313.709 29.7238 311.729 28.575C309.749 27.4294 307.61 26.853 305.311 26.853C303.019 26.853 300.88 27.4164 298.9 28.5368C296.914 29.6572 295.317 31.2995 294.088 33.4639C292.865 35.6291 292.248 38.1975 292.248 41.17C292.248 44.1433 292.865 46.7508 294.088 48.9916C295.317 51.2356 296.934 52.9446 298.939 54.1163C300.944 55.2911 303.071 55.8765 305.311 55.8765C307.61 55.8765 309.749 55.3033 311.729 54.1545C313.709 53.0089 315.313 51.3275 316.541 49.1095C317.763 46.8939 318.381 44.2995 318.381 41.3261C318.381 38.3536 317.763 35.7721 316.541 33.5818ZM285.799 29.6694C287.594 26.3342 290.046 23.7398 293.151 21.8876C296.252 20.0379 299.683 19.1086 303.44 19.1086C306.826 19.1086 309.786 19.7737 312.314 21.1039C314.841 22.4348 316.866 24.0902 318.381 26.0732V19.8152H327.377V62.9176H318.381V56.5034C316.866 58.5376 314.803 60.2304 312.2 61.5866C309.59 62.9428 306.616 63.6209 303.28 63.6209C299.575 63.6209 296.188 62.6688 293.114 60.7654C290.033 58.8621 287.594 56.2042 285.799 52.7853C283.997 49.3729 283.1 45.4995 283.1 41.17C283.1 36.8413 283.997 33.0086 285.799 29.6694Z" fill="white"/>
<path d="M339.111 19.8135H348.023V62.9159H339.111V19.8135Z" fill="white"/>
<path d="M390.619 21.2217C393.305 22.6283 395.406 24.717 396.915 27.4798C398.43 30.2458 399.188 33.5818 399.188 37.4934V62.9167H390.345V38.8243C390.345 34.9631 389.384 32.0061 387.454 29.9433C385.519 27.8839 382.89 26.8529 379.547 26.8529C376.212 26.8529 373.563 27.8839 371.61 29.9433C369.655 32.0061 368.674 34.9631 368.674 38.8243V62.9167H359.762V19.8151H368.674V24.7422C370.139 22.969 372.004 21.5876 374.271 20.5949C376.537 19.6046 378.949 19.1078 381.508 19.1078C384.896 19.1078 387.932 19.8151 390.619 21.2217Z" fill="white"/>
<path d="M158.717 98.5854C157.532 98.0537 156.603 97.3122 155.935 96.3666C155.26 95.4242 154.909 94.3299 154.891 93.0916H158.049C158.163 94.1575 158.602 95.0551 159.373 95.7812C160.143 96.5097 161.27 96.8731 162.747 96.8731C164.16 96.8731 165.274 96.5194 166.089 95.8129C166.903 95.1096 167.311 94.2022 167.311 93.0916C167.311 92.2224 167.069 91.5159 166.592 90.9744C166.115 90.4305 165.516 90.0166 164.797 89.7361C164.084 89.4532 163.116 89.1475 161.9 88.8231C160.397 88.4312 159.194 88.0401 158.297 87.6482C157.392 87.2563 156.622 86.6457 155.979 85.8083C155.343 84.9716 155.018 83.848 155.018 82.4341C155.018 81.1958 155.336 80.0982 155.966 79.1429C156.597 78.1851 157.482 77.446 158.621 76.924C159.761 76.4021 161.072 76.1443 162.549 76.1443C164.681 76.1443 166.42 76.6761 167.782 77.7395C169.139 78.8054 169.902 80.2193 170.081 81.9796H166.821C166.712 81.1104 166.255 80.3429 165.452 79.6811C164.644 79.016 163.581 78.6843 162.257 78.6843C161.015 78.6843 160.009 79.0063 159.226 79.6461C158.443 80.2893 158.049 81.1836 158.049 82.3357C158.049 83.1634 158.283 83.835 158.755 84.357C159.22 84.8789 159.793 85.2765 160.48 85.5473C161.162 85.818 162.123 86.1302 163.364 86.4766C164.866 86.8872 166.069 87.2953 166.98 87.6994C167.897 88.1003 168.68 88.7214 169.33 89.5548C169.978 90.3923 170.309 91.5281 170.309 92.9615C170.309 94.0721 170.017 95.1128 169.425 96.0901C168.839 97.0707 167.973 97.8626 166.821 98.4708C165.668 99.0789 164.312 99.3846 162.747 99.3846C161.244 99.3846 159.901 99.1171 158.717 98.5854Z" fill="#41BCD7"/>
<path d="M207.564 76.4378V78.8469H201.369V99.1554H198.402V78.8469H192.177V76.4378H207.564Z" fill="#41BCD7"/>
<path d="M233.018 76.4378V90.8126C233.018 92.8306 233.514 94.3299 234.501 95.3104C235.488 96.2877 236.863 96.7747 238.626 96.7747C240.364 96.7747 241.726 96.2877 242.713 95.3104C243.7 94.3299 244.197 92.8306 244.197 90.8126V76.4378H247.163V90.7777C247.163 92.668 246.781 94.26 246.024 95.5519C245.26 96.8479 244.234 97.8089 242.943 98.4391C241.651 99.0692 240.199 99.3846 238.588 99.3846C236.984 99.3846 235.532 99.0692 234.24 98.4391C232.948 97.8089 231.922 96.8479 231.178 95.5519C230.426 94.26 230.051 92.668 230.051 90.7777V76.4378H233.018Z" fill="#41BCD7"/>
<path d="M284.812 94.3811C286.353 92.8274 287.129 90.6468 287.129 87.8458C287.129 85.0196 286.346 82.813 284.793 81.2283C283.24 79.6437 281.012 78.8477 278.096 78.8477H273.989V96.7113H278.096C281.031 96.7113 283.271 95.934 284.812 94.3811ZM284.532 77.8225C286.346 78.7461 287.741 80.0665 288.708 81.782C289.676 83.4976 290.16 85.5196 290.16 87.8458C290.16 90.1695 289.676 92.1842 288.708 93.8908C287.741 95.5966 286.346 96.9024 284.532 97.8024C282.718 98.7033 280.573 99.1554 278.096 99.1554H271.023V76.4378H278.096C280.573 76.4378 282.718 76.8997 284.532 77.8225Z" fill="#41BCD7"/>
<path d="M312.973 76.4378H315.939V99.1553H312.973V76.4378Z" fill="#41BCD7"/>
<path d="M354.478 95.7015C355.751 94.9632 356.75 93.9063 357.476 92.5371C358.208 91.1687 358.572 89.5841 358.572 87.7783C358.572 85.9546 358.208 84.3635 357.476 83.004C356.75 81.6479 355.758 80.5974 354.497 79.8591C353.236 79.1209 351.804 78.7518 350.193 78.7518C348.589 78.7518 347.151 79.1209 345.89 79.8591C344.629 80.5974 343.637 81.6479 342.911 83.004C342.179 84.3635 341.815 85.9546 341.815 87.7783C341.815 89.5841 342.179 91.1687 342.911 92.5371C343.637 93.9063 344.636 94.9632 345.909 95.7015C347.182 96.4397 348.608 96.8089 350.193 96.8089C351.779 96.8089 353.211 96.4397 354.478 95.7015ZM344.426 97.9008C342.688 96.9113 341.313 95.5324 340.301 93.7599C339.295 91.9899 338.785 89.9971 338.785 87.7783C338.785 85.5635 339.295 83.5707 340.301 81.7975C341.313 80.0283 342.688 78.6461 344.426 77.6598C346.164 76.6695 348.086 76.176 350.193 76.176C352.327 76.176 354.255 76.6695 356 77.6598C357.737 78.6461 359.106 80.0218 360.106 81.782C361.105 83.5423 361.602 85.5408 361.602 87.7783C361.602 90.0166 361.105 92.0151 360.106 93.7754C359.106 95.5356 357.737 96.9113 356 97.9008C354.255 98.8878 352.327 99.3846 350.193 99.3846C348.086 99.3846 346.164 98.8878 344.426 97.9008Z" fill="#41BCD7"/>
<path d="M387.594 98.5854C386.409 98.0537 385.48 97.3122 384.812 96.3666C384.137 95.4242 383.786 94.3299 383.768 93.0916H386.925C387.04 94.1575 387.479 95.0551 388.249 95.7812C389.02 96.5097 390.147 96.8731 391.623 96.8731C393.036 96.8731 394.151 96.5194 394.966 95.8129C395.78 95.1096 396.188 94.2022 396.188 93.0916C396.188 92.2224 395.946 91.5159 395.469 90.9744C394.991 90.4305 394.393 90.0166 393.674 89.7361C392.961 89.4532 391.993 89.1475 390.777 88.8231C389.274 88.4312 388.071 88.0401 387.173 87.6482C386.269 87.2563 385.499 86.6457 384.856 85.8083C384.22 84.9716 383.895 83.848 383.895 82.4341C383.895 81.1958 384.213 80.0982 384.843 79.1429C385.474 78.1851 386.359 77.446 387.498 76.924C388.638 76.4021 389.949 76.1443 391.426 76.1443C393.558 76.1443 395.297 76.6761 396.659 77.7395C398.015 78.8054 398.779 80.2193 398.958 81.9796H395.698C395.589 81.1104 395.132 80.3429 394.329 79.6811C393.521 79.016 392.458 78.6843 391.134 78.6843C389.892 78.6843 388.886 79.0063 388.103 79.6461C387.32 80.2893 386.925 81.1836 386.925 82.3357C386.925 83.1634 387.16 83.835 387.632 84.357C388.097 84.8789 388.669 85.2765 389.357 85.5473C390.039 85.818 391 86.1302 392.241 86.4766C393.743 86.8872 394.946 87.2953 395.857 87.6994C396.774 88.1003 397.557 88.7214 398.206 89.5548C398.855 90.3923 399.186 91.5281 399.186 92.9615C399.186 94.0721 398.894 95.1128 398.302 96.0901C397.716 97.0707 396.85 97.8626 395.698 98.4708C394.545 99.0789 393.189 99.3846 391.623 99.3846C390.121 99.3846 388.778 99.1171 387.594 98.5854Z" fill="#41BCD7"/>
<path d="M339.573 12.4587C338.478 11.3635 337.93 10.0105 337.93 8.39338C337.93 6.77703 338.478 5.42085 339.573 4.32567C340.668 3.23048 342.023 2.68005 343.641 2.68005C345.207 2.68005 346.537 3.23048 347.633 4.32567C348.727 5.42085 349.275 6.77703 349.275 8.39338C349.275 10.0105 348.727 11.3635 347.633 12.4587C346.537 13.5571 345.207 14.1043 343.641 14.1043C342.023 14.1043 340.668 13.5571 339.573 12.4587Z" fill="#F8D038"/>
<defs>
<linearGradient id="paint0_linear_534_1023" x1="39.9416" y1="65.1196" x2="62.3816" y2="40.6396" gradientUnits="userSpaceOnUse">
<stop stop-color="#596BFF"/>
<stop offset="1" stop-color="#41BCD7"/>
</linearGradient>
</defs>
</svg>
