<svg width="528" height="132" viewBox="0 0 528 132" fill="none" xmlns="http://www.w3.org/2000/svg">
<path d="M30.0194 129.664C24.0768 129.664 18.8771 128.407 14.4202 125.893C9.96325 123.379 6.53486 119.779 4.13498 115.094C1.7351 110.408 0.535156 104.923 0.535156 98.6374C0.535156 92.352 1.7351 86.8808 4.13498 82.2239C6.53486 77.567 9.96325 73.9814 14.4202 71.4673C18.8771 68.9531 24.0768 67.696 30.0194 67.696C37.5047 67.696 43.9616 69.7531 49.3899 73.8672C50.247 74.5528 50.8469 75.2385 51.1898 75.9242C51.5326 76.6099 51.704 77.467 51.704 78.4955C51.704 79.9811 51.2898 81.2525 50.4612 82.3096C49.6327 83.3667 48.6185 83.8952 47.4185 83.8952C46.6186 83.8952 45.9186 83.7952 45.3186 83.5952C44.7187 83.3953 44.0473 83.0381 43.3044 82.5239C41.0188 81.0382 38.9047 79.9669 36.9619 79.3097C35.0191 78.6526 32.9335 78.3241 30.7051 78.3241C25.2196 78.3241 21.0913 80.024 18.32 83.4238C15.5487 86.8237 14.163 91.8948 14.163 98.6374C14.163 112.237 19.6771 119.036 30.7051 119.036C32.8193 119.036 34.8192 118.708 36.7048 118.051C38.5904 117.394 40.7903 116.322 43.3044 114.837C44.1615 114.322 44.8758 113.965 45.4472 113.765C46.0186 113.565 46.6757 113.465 47.4185 113.465C48.6185 113.465 49.6327 113.994 50.4612 115.051C51.2898 116.108 51.704 117.379 51.704 118.865C51.704 119.893 51.5183 120.765 51.1469 121.479C50.7755 122.193 50.1898 122.865 49.3899 123.493C43.9616 127.607 37.5047 129.664 30.0194 129.664Z" fill="white"/>
<path d="M66.6182 128.893C64.6183 128.893 63.0755 128.35 61.9898 127.264C60.9042 126.179 60.3613 124.636 60.3613 122.636V74.6385C60.3613 72.6386 60.9613 71.0387 62.1612 69.8388C63.3612 68.6388 64.9897 68.0389 67.0467 68.0389C69.1037 68.0389 70.7322 68.6388 71.9322 69.8388C73.1321 71.0387 73.7321 72.6386 73.7321 74.6385V118.008H95.6738C99.8451 118.008 101.931 119.836 101.931 123.493C101.931 127.093 99.8451 128.893 95.6738 128.893H66.6182Z" fill="white"/>
<path d="M333.093 129.322C331.093 129.322 329.479 128.722 328.25 127.522C327.021 126.322 326.407 124.722 326.407 122.722V79.3526H312.522C308.294 79.3526 306.18 77.5241 306.18 73.8672C306.18 70.2674 308.294 68.4675 312.522 68.4675H353.663C357.891 68.4675 360.006 70.2674 360.006 73.8672C360.006 77.5241 357.891 79.3526 353.663 79.3526H339.778V122.722C339.778 124.722 339.178 126.322 337.978 127.522C336.778 128.722 335.15 129.322 333.093 129.322Z" fill="white"/>
<path d="M413.231 68.0389C415.231 68.0389 416.831 68.6388 418.031 69.8388C419.231 71.0387 419.831 72.6386 419.831 74.6385V122.722C419.831 124.722 419.231 126.336 418.031 127.564C416.831 128.793 415.231 129.407 413.231 129.407C411.231 129.407 409.646 128.807 408.474 127.607C407.303 126.407 406.717 124.779 406.717 122.722V103.523H378.862V122.722C378.862 124.722 378.262 126.336 377.062 127.564C375.862 128.793 374.29 129.407 372.348 129.407C370.348 129.407 368.748 128.807 367.548 127.607C366.348 126.407 365.748 124.779 365.748 122.722V74.6385C365.748 72.6386 366.348 71.0387 367.548 69.8388C368.748 68.6388 370.348 68.0389 372.348 68.0389C374.348 68.0389 375.933 68.6388 377.105 69.8388C378.276 71.0387 378.862 72.6386 378.862 74.6385V92.8948H406.717V74.6385C406.717 72.6386 407.303 71.0387 408.474 69.8388C409.646 68.6388 411.231 68.0389 413.231 68.0389Z" fill="white"/>
<path d="M438.089 128.893C436.089 128.893 434.546 128.35 433.461 127.265C432.375 126.179 431.832 124.636 431.832 122.636V74.7243C431.832 72.7244 432.375 71.1816 433.461 70.0959C434.546 69.0103 436.089 68.4675 438.089 68.4675H468.43C472.659 68.4675 474.773 70.1817 474.773 73.6101C474.773 77.0956 472.659 78.8384 468.43 78.8384H444.86V92.9805H466.716C470.944 92.9805 473.059 94.7233 473.059 98.2088C473.059 101.637 470.944 103.351 466.716 103.351H444.86V118.522H468.43C472.659 118.522 474.773 120.265 474.773 123.75C474.773 127.179 472.659 128.893 468.43 128.893H438.089Z" fill="white"/>
<path d="M503.572 129.664C499.058 129.664 494.858 129.136 490.972 128.079C487.087 127.022 483.915 125.522 481.458 123.579C480.601 122.95 479.987 122.279 479.616 121.565C479.244 120.851 479.059 119.951 479.059 118.865C479.059 117.436 479.501 116.179 480.387 115.094C481.273 114.008 482.287 113.465 483.43 113.465C484.058 113.465 484.673 113.565 485.273 113.765C485.873 113.965 486.601 114.322 487.458 114.837C489.915 116.379 492.401 117.508 494.915 118.222C497.429 118.936 500.2 119.293 503.229 119.293C507 119.293 509.886 118.665 511.886 117.408C513.885 116.151 514.885 114.351 514.885 112.008C514.885 110.237 513.957 108.808 512.1 107.723C510.243 106.637 506.943 105.608 502.2 104.637C496.886 103.551 492.644 102.237 489.472 100.694C486.301 99.1516 483.987 97.2374 482.53 94.9518C481.073 92.6662 480.344 89.8949 480.344 86.638C480.344 83.0381 481.387 79.7954 483.473 76.9099C485.558 74.0243 488.444 71.7673 492.129 70.1388C495.815 68.5103 499.972 67.696 504.6 67.696C512.714 67.696 519.399 69.7245 524.656 73.7815C525.513 74.4671 526.128 75.1671 526.499 75.8813C526.87 76.5956 527.056 77.467 527.056 78.4955C527.056 79.924 526.613 81.1811 525.728 82.2667C524.842 83.3524 523.828 83.8952 522.685 83.8952C522.056 83.8952 521.471 83.8095 520.928 83.6381C520.385 83.4667 519.628 83.0953 518.657 82.5239C516.314 81.0382 514.157 79.924 512.186 79.1812C510.214 78.4384 507.714 78.067 504.686 78.067C501.2 78.067 498.458 78.7383 496.458 80.0811C494.458 81.4239 493.458 83.2667 493.458 85.6094C493.458 86.9808 493.844 88.1093 494.615 88.995C495.386 89.8806 496.672 90.6663 498.472 91.352C500.272 92.0377 502.829 92.7519 506.143 93.4948C513.914 95.209 519.499 97.4088 522.899 100.094C526.299 102.78 527.999 106.466 527.999 111.151C527.999 114.808 526.985 118.036 524.956 120.836C522.928 123.636 520.071 125.807 516.385 127.35C512.7 128.893 508.429 129.664 503.572 129.664Z" fill="white"/>
<path d="M185.657 63.9595C189.038 63.9595 191.779 66.7005 191.779 70.0816C191.779 73.342 189.23 76.0072 186.016 76.1934L185.657 76.2038H148.626C136.691 76.2038 127.016 85.879 127.016 97.8139C127.016 109.553 136.376 119.106 148.041 119.416L148.626 119.424H263.518C275.453 119.424 285.128 109.749 285.128 97.8139C285.128 86.0746 275.768 76.5216 264.103 76.2115L263.518 76.2038H206.294C202.913 76.2038 200.172 73.4628 200.172 70.0816C200.172 66.8212 202.721 64.1561 205.935 63.9699L206.294 63.9595H263.518C270.475 63.9595 276.942 66.058 282.321 69.6567L283.316 70.3489C291.831 76.4975 297.373 86.5086 297.373 97.8139C297.373 116.294 282.566 131.315 264.169 131.662L263.518 131.668H148.626C137.321 131.668 127.31 126.127 121.161 117.612L120.469 116.616C116.87 111.238 114.771 104.771 114.771 97.8139C114.771 90.8568 116.87 84.3898 120.469 79.0114L121.161 78.0159C123.289 75.0684 125.88 72.4772 128.828 70.3489L129.823 69.6567C135.034 66.1705 141.266 64.0921 147.975 63.9656L148.626 63.9595H185.657Z" fill="white"/>
<path d="M206.079 46.2869C209.34 46.2869 212.005 48.8356 212.191 52.0493L212.201 52.409V70.0735C212.201 73.4546 209.46 76.1956 206.079 76.1956C202.819 76.1956 200.154 73.6469 199.967 70.4332L199.957 70.0735V52.409C199.957 49.0279 202.698 46.2869 206.079 46.2869Z" fill="white"/>
<path d="M195.997 2.77369C206.797 -1.7007 219.229 0.771444 227.495 9.03734C235.762 17.3032 238.235 29.735 233.762 40.5355C229.288 51.336 218.749 58.3781 207.059 58.3781C203.678 58.3781 200.937 55.6372 200.937 52.256C200.937 48.9956 203.485 46.3304 206.699 46.1442L207.059 46.1338C213.797 46.1338 219.871 42.075 222.449 35.85C225.028 29.625 223.602 22.4599 218.838 17.6957C214.073 12.9316 206.908 11.5068 200.683 14.0856C194.636 16.5908 190.634 22.3949 190.41 28.9012L190.401 29.477C190.401 32.8582 187.66 35.5994 184.279 35.5997C180.898 35.6 178.156 32.8593 178.156 29.4781C178.155 17.7878 185.196 7.24809 195.997 2.77369Z" fill="white"/>
<path d="M231.281 91.4193C234.662 91.4193 237.403 94.1603 237.403 97.5415C237.403 100.802 234.855 103.467 231.641 103.653L231.281 103.664H175.108C171.727 103.664 168.986 100.923 168.986 97.5415C168.986 94.2811 171.535 91.6159 174.749 91.4297L175.108 91.4193H231.281Z" fill="#ED5E5B"/>
</svg>
