<svg width="399" height="372" viewBox="0 0 399 372" fill="none" xmlns="http://www.w3.org/2000/svg">
<path d="M58.9282 299.12C69.2482 299.12 77.5682 295.36 83.0082 288.56L72.9282 279.44C69.4082 283.68 65.0882 286 59.7282 286C50.5282 286 44.1282 279.6 44.1282 270C44.1282 260.4 50.5282 254 59.7282 254C65.0882 254 69.4082 256.32 72.9282 260.56L83.0082 251.44C77.5682 244.64 69.2482 240.88 58.9282 240.88C41.1682 240.88 28.1282 252.96 28.1282 270C28.1282 287.04 41.1682 299.12 58.9282 299.12ZM124.711 298H141.671L129.591 280.4C136.551 277.04 140.551 270.96 140.551 262.72C140.551 249.92 130.951 242 115.671 242H90.0707V298H105.911V283.12H114.551L124.711 298ZM124.551 262.72C124.551 267.84 121.271 270.88 114.711 270.88H105.911V254.48H114.711C121.271 254.48 124.551 257.52 124.551 262.72ZM199.948 242H184.588L171.308 264.24L158.028 242H141.308L162.668 277.68V298H178.508V277.92L199.948 242ZM229.343 242H203.743V298H219.583V283.36H229.343C244.623 283.36 254.223 275.44 254.223 262.72C254.223 249.92 244.623 242 229.343 242ZM228.383 270.88H219.583V254.48H228.383C234.943 254.48 238.223 257.52 238.223 262.72C238.223 267.84 234.943 270.88 228.383 270.88ZM272.459 298H288.299V254.56H305.419V242H255.259V254.56H272.459V298ZM338.779 299.12C356.699 299.12 369.899 286.8 369.899 270C369.899 253.2 356.699 240.88 338.779 240.88C320.859 240.88 307.659 253.2 307.659 270C307.659 286.8 320.859 299.12 338.779 299.12ZM338.779 286C330.299 286 323.659 279.68 323.659 270C323.659 260.32 330.299 254 338.779 254C347.259 254 353.899 260.32 353.899 270C353.899 279.68 347.259 286 338.779 286ZM71.9041 319L63.7041 343.2L55.4641 319H52.7041L44.3441 343.08L36.2641 319H33.2241L42.6641 347H45.7441L53.9841 323.12L62.1841 347H65.3041L74.7441 319H71.9041ZM133.432 347H136.552L123.752 319H120.832L108.032 347H111.112L114.472 339.52H130.072L133.432 347ZM115.552 337.12L122.272 322.08L128.992 337.12H115.552ZM174.384 347H193.024V344.44H177.344V319H174.384V347ZM231.139 347H249.779V344.44H234.099V319H231.139V347ZM290.853 344.44V334.04H305.333V331.52H290.853V321.56H307.093V319H287.893V347H307.693V344.44H290.853ZM353.291 347H356.251V321.56H366.091V319H343.451V321.56H353.291V347Z" fill="white"/>
<path fill-rule="evenodd" clip-rule="evenodd" d="M281.354 117.148C268.965 149.706 237.462 172.841 200.555 172.841C152.827 172.841 114.135 134.149 114.135 86.4206C114.135 38.6918 152.827 0 200.555 0C240.303 0 273.784 26.8343 283.869 63.3751H242.683C234.527 48.4966 218.719 38.4091 200.554 38.4091C174.038 38.4091 152.543 59.9046 152.543 86.4206C152.543 112.937 174.038 134.432 200.554 134.432C215.382 134.432 228.64 127.71 237.447 117.148H281.354Z" fill="white"/>
<rect x="217.842" y="72.9774" width="88.341" height="34.5682" rx="5" fill="#F565D8"/>
</svg>
