<svg width="112" height="80" viewBox="0 0 112 80" fill="none" xmlns="http://www.w3.org/2000/svg">
<path d="M2.56445 68.8886V30.7262C2.56424 29.3195 2.91127 27.9344 3.57475 26.6939C4.23823 25.4534 5.19765 24.3959 6.36787 23.6151L36.2824 3.67497C37.6869 2.73788 39.3376 2.23779 41.026 2.23779C42.7144 2.23779 44.365 2.73788 45.7696 3.67497L75.6841 23.6151C76.8543 24.3959 77.8138 25.4534 78.4772 26.6939C79.1407 27.9344 79.4877 29.3195 79.4875 30.7262V68.8886M2.56445 68.8886C2.56445 71.1554 3.46494 73.3294 5.06781 74.9323C6.67069 76.5352 8.84465 77.4357 11.1115 77.4357H70.9405C73.2073 77.4357 75.3813 76.5352 76.9842 74.9323C78.587 73.3294 79.4875 71.1554 79.4875 68.8886M2.56445 68.8886L31.4106 49.6579M79.4875 68.8886L50.6414 49.6579M31.4106 49.6579L2.56445 30.4271M31.4106 49.6579L36.2824 52.9057C37.6869 53.8428 39.3376 54.3429 41.026 54.3429C42.7144 54.3429 44.365 53.8428 45.7696 52.9057L50.6414 49.6579M50.6414 49.6579L79.4875 30.4271" stroke="#F8D038" stroke-width="2" stroke-linecap="round" stroke-linejoin="round"/>
<path d="M110.771 57.4364C109.698 57.4364 108.625 57.7462 107.694 58.3677C106.783 58.9752 105.712 59.2994 104.617 59.2994C103.522 59.2994 102.451 58.9752 101.54 58.3677C100.629 57.7602 99.5582 57.436 98.463 57.436C97.3679 57.436 96.2973 57.7602 95.3861 58.3677C94.4749 58.9752 93.4043 59.2994 92.3092 59.2994C91.2141 59.2994 90.1434 58.9752 89.2323 58.3677C88.3211 57.7602 87.2505 57.436 86.1553 57.436C85.0602 57.436 83.9896 57.7602 83.0784 58.3677C82.1672 58.9752 81.0966 59.2994 80.0015 59.2994C78.9064 59.2994 77.8358 58.9752 76.9246 58.3677C76.0135 57.76 74.9428 57.4359 73.8477 57.4364" stroke="#41BCD7" stroke-width="2" stroke-linecap="round" stroke-linejoin="round"/>
<path d="M110.771 43.0771C109.698 43.0771 108.625 43.3868 107.694 44.0083C106.783 44.6158 105.712 44.94 104.617 44.94C103.522 44.94 102.451 44.6158 101.54 44.0083C100.629 43.4008 99.5582 43.0767 98.463 43.0767C97.3679 43.0767 96.2973 43.4008 95.3861 44.0083C94.4749 44.6158 93.4043 44.94 92.3092 44.94C91.2141 44.94 90.1434 44.6158 89.2323 44.0083C88.3211 43.4008 87.2505 43.0767 86.1553 43.0767C85.0602 43.0767 83.9896 43.4008 83.0784 44.0083C82.1672 44.6158 81.0966 44.94 80.0015 44.94C78.9064 44.94 77.8358 44.6158 76.9246 44.0083C76.0135 43.4006 74.9428 43.0766 73.8477 43.0771" stroke="#41BCD7" stroke-width="2" stroke-linecap="round" stroke-linejoin="round"/>
<path d="M110.771 69.7441C109.698 69.7441 108.625 70.0538 107.694 70.6753C106.783 71.2828 105.712 71.607 104.617 71.607C103.522 71.607 102.451 71.2828 101.54 70.6753C100.629 70.0678 99.5582 69.7437 98.463 69.7437C97.3679 69.7437 96.2973 70.0678 95.3861 70.6753C94.4749 71.2828 93.4043 71.607 92.3092 71.607C91.2141 71.607 90.1434 71.2828 89.2323 70.6753C88.3211 70.0678 87.2505 69.7437 86.1553 69.7437C85.0602 69.7437 83.9896 70.0678 83.0784 70.6753C82.1672 71.2828 81.0966 71.607 80.0015 71.607C78.9064 71.607 77.8358 71.2828 76.9246 70.6753C76.0135 70.0676 74.9428 69.7436 73.8477 69.7441" stroke="#41BCD7" stroke-width="2" stroke-linecap="round" stroke-linejoin="round"/>
</svg>
