<svg width="170" height="141" viewBox="0 0 170 141" fill="none" xmlns="http://www.w3.org/2000/svg">
<path d="M153 55.7077V31.0216C153 30.5372 152.607 30.1445 152.123 30.1445H107.028C106.544 30.1445 106.151 30.5372 106.151 31.0216V76.1168C106.151 76.6012 106.544 76.9939 107.028 76.9939H152.123C152.607 76.9939 153 76.6012 153 76.1168V65.1123" stroke="#F8D038" stroke-width="2"/>
<path d="M112.774 30.1446V14.4541" stroke="#F8D038" stroke-width="2" stroke-linecap="round"/>
<path d="M145.521 30.1446V14.4541" stroke="#F8D038" stroke-width="2" stroke-linecap="round"/>
<path d="M112.774 21.415H145.52" stroke="#F8D038" stroke-width="2"/>
<path d="M122.317 21.415V30.1449" stroke="#F8D038" stroke-width="2"/>
<path d="M136.059 21.415V30.1449" stroke="#F8D038" stroke-width="2"/>
<path d="M115.577 21.415L126.351 5.99268H131.705L142.299 21.415" stroke="#F8D038" stroke-width="2"/>
<path d="M129.147 5.99237V1" stroke="#F8D038" stroke-width="2" stroke-linecap="round"/>
<path d="M137.109 40.3923C134.755 38.9538 131.985 38.1245 129.021 38.1245C120.463 38.1245 113.525 45.0378 113.525 53.5657C113.525 62.0937 120.463 69.0069 129.021 69.0069C137.579 69.0069 144.517 62.0937 144.517 53.5657C144.517 51.4741 144.099 49.4797 143.343 47.6605" stroke="#F8D038" stroke-width="2" stroke-linecap="round"/>
<path d="M129.229 46.6304V53.566H123.383" stroke="#41BCD7" stroke-width="2" stroke-linecap="round" stroke-linejoin="round"/>
<path d="M110.604 138.164V76.9941" stroke="#F8D038" stroke-width="2" stroke-linecap="round"/>
<path d="M147.989 76.9941V107.579H110.604" stroke="#F8D038" stroke-width="2"/>
<path d="M129.296 85.582V138.163" stroke="#F8D038" stroke-width="2" stroke-linecap="round"/>
<path d="M110.604 90.687H147.989" stroke="#F8D038" stroke-width="2"/>
<path d="M110.604 123.608H147.989" stroke="#F8D038" stroke-width="2"/>
<path d="M119.871 76.9941V90.687" stroke="#F8D038" stroke-width="2"/>
<path d="M138.492 107.579V85.582" stroke="#F8D038" stroke-width="2" stroke-linecap="round"/>
<path d="M138.492 138.17V116.173" stroke="#F8D038" stroke-width="2" stroke-linecap="round"/>
<path d="M119.871 100.837V123.724" stroke="#F8D038" stroke-width="2" stroke-linecap="round"/>
<path d="M119.871 130.91V138.164" stroke="#F8D038" stroke-width="2" stroke-linecap="round"/>
<path d="M98.8203 130.91V138.164" stroke="#F8D038" stroke-width="2" stroke-linecap="round"/>
<path d="M75.4307 130.91V138.164" stroke="#F8D038" stroke-width="2" stroke-linecap="round"/>
<path d="M52.041 130.91V138.164" stroke="#F8D038" stroke-width="2" stroke-linecap="round"/>
<path d="M28.6504 130.91V138.164" stroke="#F8D038" stroke-width="2" stroke-linecap="round"/>
<path d="M40.3457 126.728V138.164" stroke="#F8D038" stroke-width="2" stroke-linecap="round"/>
<path d="M147.989 114.747V138.163" stroke="#F8D038" stroke-width="2" stroke-linecap="round"/>
<path d="M110.603 118.569H16.8281" stroke="#F8D038" stroke-width="2"/>
<path d="M16.8281 106.377V138.163" stroke="#F8D038" stroke-width="2" stroke-linecap="round"/>
<path d="M16.8281 118.569L26.3532 99.2129H30.9104L40.395 118.569" stroke="#F8D038" stroke-width="2" stroke-linecap="round" stroke-linejoin="round"/>
<path d="M28.6113 99.2126V92.2866" stroke="#F8D038" stroke-width="2" stroke-linecap="round" stroke-linejoin="round"/>
<path d="M40.3955 118.569V106.377" stroke="#F8D038" stroke-width="2" stroke-linecap="round" stroke-linejoin="round"/>
<path d="M40.5107 118.569L50.0358 99.2129H54.593L64.0776 118.569" stroke="#F8D038" stroke-width="2" stroke-linecap="round" stroke-linejoin="round"/>
<path d="M52.2939 99.2126V92.2866" stroke="#F8D038" stroke-width="2" stroke-linecap="round" stroke-linejoin="round"/>
<path d="M64.0781 118.569V106.377" stroke="#F8D038" stroke-width="2" stroke-linecap="round" stroke-linejoin="round"/>
<path d="M64.0771 118.569V138.164" stroke="#F8D038" stroke-width="2" stroke-linecap="round"/>
<path d="M87.1748 118.569V138.164" stroke="#F8D038" stroke-width="2" stroke-linecap="round"/>
<path d="M78.6465 87.8462H90.3908" stroke="#F8D038" stroke-width="2" stroke-linecap="round" stroke-linejoin="round"/>
<path d="M18.418 54.5073H30.1623" stroke="#F8D038" stroke-width="2" stroke-linecap="round" stroke-linejoin="round"/>
<path fill-rule="evenodd" clip-rule="evenodd" d="M73.3125 64.2358H68.3933C68.4827 63.8431 68.5349 63.4369 68.5349 63.0178C68.5349 59.9871 66.0536 57.507 63.0216 57.507H60.1915C60.1915 55.0749 58.2006 53.085 55.7674 53.085C53.3336 53.085 51.3427 55.0749 51.3427 57.507H48.5133C45.4806 57.507 43 59.9871 43 63.0178C43 66.0484 45.4806 68.5285 48.5133 68.5285H60.2125C60.4137 70.484 62.0794 72.0223 64.0865 72.0223H73.3125C75.4544 72.0223 77.2075 70.27 77.2075 68.1291C77.2075 65.9875 75.4544 64.2358 73.3125 64.2358Z" stroke="#41BCD7" stroke-width="2" stroke-linecap="round" stroke-linejoin="round"/>
<path d="M104.607 38.085C102.695 38.085 100.555 39.6312 100.555 41.521H98.3319C95.949 41.521 94 43.4481 94 45.803C94 48.1578 95.949 50.085 98.3319 50.085H105" stroke="#41BCD7" stroke-width="2" stroke-linecap="round" stroke-linejoin="round"/>
<path fill-rule="evenodd" clip-rule="evenodd" d="M29.645 32.8458H28.6826V32.2647C28.6826 30.5161 27.2308 29.085 25.4555 29.085C23.6809 29.085 22.2284 30.5161 22.2284 32.2647V32.8458H21.266C19.4702 32.8458 18 34.2938 18 36.0639C18 37.834 19.4702 39.282 21.266 39.282H29.645C31.4414 39.282 32.911 37.834 32.911 36.0639C32.911 34.2938 31.4414 32.8458 29.645 32.8458Z" stroke="#41BCD7" stroke-width="2" stroke-linecap="round" stroke-linejoin="round"/>
<path d="M64 31.085H72.4788" stroke="#F8D038" stroke-width="2" stroke-linecap="round" stroke-linejoin="round"/>
<path d="M1 139.585H168.5" stroke="#F8D038" stroke-width="2" stroke-linecap="round"/>
</svg>
