<svg width="194" height="142" viewBox="0 0 194 142" fill="none" xmlns="http://www.w3.org/2000/svg">
<path d="M3 43H11.4788" stroke="#F8D038" stroke-width="2" stroke-linecap="round" stroke-linejoin="round"/>
<path d="M152 1H160.479" stroke="#F8D038" stroke-width="2" stroke-linecap="round" stroke-linejoin="round"/>
<path d="M1 139.5C0.447715 139.5 0 139.948 0 140.5C0 141.052 0.447715 141.5 1 141.5V139.5ZM192.5 141.5C193.052 141.5 193.5 141.052 193.5 140.5C193.5 139.948 193.052 139.5 192.5 139.5V141.5ZM1 141.5H192.5V139.5H1V141.5Z" fill="#F8D038"/>
<path d="M98.4259 57.9007H96.4131M86.8044 57.9007H41V40.5659H153.689V57.9007H108.34H86.8044Z" stroke="#F8D038" stroke-width="2" stroke-linecap="round" stroke-linejoin="round"/>
<path fill-rule="evenodd" clip-rule="evenodd" d="M31.8118 22.8325H27.7853C27.8585 22.5214 27.9012 22.1996 27.9012 21.8676C27.9012 19.4671 25.8702 17.5026 23.3884 17.5026H21.0718C21.0718 15.5762 19.4422 14 17.4506 14C15.4584 14 13.8288 15.5762 13.8288 17.5026H11.5128C9.03046 17.5026 7 19.4671 7 21.8676C7 24.2682 9.03046 26.2327 11.5128 26.2327H21.089C21.2537 27.7815 22.6171 29 24.26 29H31.8118C33.565 29 35 27.612 35 25.9162C35 24.2199 33.565 22.8325 31.8118 22.8325Z" stroke="#41BCD7" stroke-width="2" stroke-linecap="round" stroke-linejoin="round"/>
<path d="M57.0312 40.5662V23.8657H137.818V40.5662" stroke="#F8D038" stroke-width="2" stroke-linejoin="round"/>
<path fill-rule="evenodd" clip-rule="evenodd" d="M178.645 26.8458H177.683V26.2647C177.683 24.5161 176.231 23.085 174.455 23.085C172.681 23.085 171.228 24.5161 171.228 26.2647V26.8458H170.266C168.47 26.8458 167 28.2938 167 30.0639C167 31.834 168.47 33.282 170.266 33.282H178.645C180.441 33.282 181.911 31.834 181.911 30.0639C181.911 28.2938 180.441 26.8458 178.645 26.8458Z" stroke="#41BCD7" stroke-width="2" stroke-linecap="round" stroke-linejoin="round"/>
<path d="M73.2344 23.8659V8" stroke="#F8D038" stroke-width="2"/>
<path d="M64.4551 8H129.623" stroke="#F8D038" stroke-width="2" stroke-linecap="round"/>
<path d="M120.555 23.8659V8" stroke="#F8D038" stroke-width="2"/>
<path d="M49.0918 57.9014V140.5H145.303V57.9014" stroke="#F8D038" stroke-width="2" stroke-linejoin="round"/>
<path d="M81.209 139.999V89.4685C81.209 80.6545 88.3542 73.5093 97.1682 73.5093C105.982 73.5093 113.127 80.6545 113.127 89.4685V139.999" stroke="#F8D038" stroke-width="2"/>
<path d="M49.0918 89.9146H81.2088" stroke="#F8D038" stroke-width="2"/>
<path d="M49.0918 105.754H81.2088" stroke="#F8D038" stroke-width="2"/>
<path d="M112.452 89.9146H144.569" stroke="#F8D038" stroke-width="2"/>
<path d="M112.452 105.754H144.569" stroke="#F8D038" stroke-width="2"/>
<path d="M65.1494 105.754V139.999" stroke="#F8D038" stroke-width="2"/>
<path d="M129.59 105.754V139.999" stroke="#F8D038" stroke-width="2"/>
<path d="M63.459 73.5093H66.7748" stroke="#F8D038" stroke-width="2" stroke-linecap="round"/>
<path d="M127.975 73.5093H131.29" stroke="#F8D038" stroke-width="2" stroke-linecap="round"/>
<path d="M21.9961 140C21.9961 140.552 22.4438 141 22.9961 141C23.5484 141 23.9961 140.552 23.9961 140H21.9961ZM23.9961 108.596C23.9961 108.043 23.5484 107.596 22.9961 107.596C22.4438 107.596 21.9961 108.043 21.9961 108.596H23.9961ZM23.9961 140V108.596H21.9961V140H23.9961Z" fill="#F8D038"/>
<path d="M32 112.5C32 116.035 30.9372 119.197 29.2675 121.451C27.5977 123.705 25.3707 125 23 125C20.6293 125 18.4023 123.705 16.7325 121.451C15.0628 119.197 14 116.035 14 112.5C14 108.965 15.0628 105.803 16.7325 103.549C18.4023 101.295 20.6293 100 23 100C25.3707 100 27.5977 101.295 29.2675 103.549C30.9372 105.803 32 108.965 32 112.5Z" stroke="#41BCD7" stroke-width="2"/>
<path d="M22.2576 118.389C21.8852 118.797 21.914 119.43 22.3218 119.802C22.7297 120.175 23.3622 120.146 23.7346 119.738L22.2576 118.389ZM26.7878 116.394C27.1602 115.986 27.1314 115.354 26.7236 114.981C26.3157 114.609 25.6832 114.638 25.3108 115.045L26.7878 116.394ZM23.7346 119.738L26.7878 116.394L25.3108 115.045L22.2576 118.389L23.7346 119.738Z" fill="#F8D038"/>
<path d="M23.7346 113.737C24.107 114.145 24.0782 114.777 23.6704 115.15C23.2625 115.522 22.63 115.493 22.2576 115.086L23.7346 113.737ZM19.2044 111.742C18.832 111.334 18.8608 110.701 19.2686 110.329C19.6765 109.957 20.309 109.985 20.6814 110.393L19.2044 111.742ZM22.2576 115.086L19.2044 111.742L20.6814 110.393L23.7346 113.737L22.2576 115.086Z" fill="#F8D038"/>
<path d="M169.996 140C169.996 140.552 170.444 141 170.996 141C171.548 141 171.996 140.552 171.996 140H169.996ZM171.996 108.596C171.996 108.043 171.548 107.596 170.996 107.596C170.444 107.596 169.996 108.043 169.996 108.596H171.996ZM171.996 140V108.596H169.996V140H171.996Z" fill="#F8D038"/>
<path d="M180 112.5C180 116.035 178.937 119.197 177.268 121.451C175.598 123.705 173.371 125 171 125C168.629 125 166.402 123.705 164.732 121.451C163.063 119.197 162 116.035 162 112.5C162 108.965 163.063 105.803 164.732 103.549C166.402 101.295 168.629 100 171 100C173.371 100 175.598 101.295 177.268 103.549C178.937 105.803 180 108.965 180 112.5Z" stroke="#41BCD7" stroke-width="2"/>
<path d="M170.258 118.389C169.885 118.797 169.914 119.43 170.322 119.802C170.73 120.175 171.362 120.146 171.735 119.738L170.258 118.389ZM174.788 116.394C175.16 115.986 175.131 115.354 174.724 114.981C174.316 114.609 173.683 114.638 173.311 115.045L174.788 116.394ZM171.735 119.738L174.788 116.394L173.311 115.045L170.258 118.389L171.735 119.738Z" fill="#F8D038"/>
<path d="M171.735 113.737C172.107 114.145 172.078 114.777 171.67 115.15C171.263 115.522 170.63 115.493 170.258 115.086L171.735 113.737ZM167.204 111.742C166.832 111.334 166.861 110.701 167.269 110.329C167.676 109.957 168.309 109.985 168.681 110.393L167.204 111.742ZM170.258 115.086L167.204 111.742L168.681 110.393L171.735 113.737L170.258 115.086Z" fill="#F8D038"/>
</svg>
