<svg width="177" height="50" viewBox="0 0 177 50" fill="none" xmlns="http://www.w3.org/2000/svg">
<g clip-path="url(#clip0_525_1551)">
<path d="M19.8132 37.3881C17.1266 37.3881 14.3281 36.9403 11.6789 36.0075C4.32812 33.3955 0.0743921 27.5373 0.335586 20.3731C0.59678 12.8358 6.26842 4.32836 18.2833 2.38806L18.9923 6.82836C8.17141 8.58209 4.99976 16.2687 4.85051 20.5224C4.58932 27.6493 9.96245 30.6343 13.2087 31.7537C19.8878 34.1045 27.9475 32.5373 31.1938 28.2463C32.4251 26.6418 32.8356 24.5522 32.2386 22.9478C31.7162 21.4925 30.6714 20.4104 29.3654 19.8881C27.9102 19.3284 26.1938 19.4403 24.5893 20.2239L22.6117 16.194C25.3729 14.8134 28.358 14.6642 31.0445 15.709C33.5819 16.7164 35.4848 18.7313 36.4923 21.3806C37.6117 24.403 36.9774 28.097 34.8132 30.9328C31.6416 35.1119 25.9326 37.3881 19.8132 37.3881Z" fill="url(#paint0_linear_525_1551)"/>
<path d="M29.9996 43.5448C28.1713 43.5448 26.3802 43.209 24.6638 42.5746C20.634 41.0821 17.4996 37.9478 16.2683 34.2164C14.5146 28.9179 15.2981 19.8134 22.6116 16.194L23.2086 15.9328L25.1489 20L24.5892 20.2612C19.5892 22.7239 19.4772 29.6642 20.522 32.7985C21.3429 35.2612 23.4698 37.3134 26.231 38.3582C29.4399 39.5522 32.9101 39.1791 36.0071 37.3507C40.8578 34.4403 43.731 27.5746 42.6862 21.3806C41.4549 14.1418 34.4399 6.41792 23.9175 6.41792C22.2011 6.41792 20.5966 6.52986 19.0668 6.79105L18.619 6.86567L17.7235 2.46269L18.3952 2.35075C20.1489 2.05224 22.0146 1.94031 23.9549 1.94031C36.9399 1.94031 45.5966 11.5672 47.1638 20.6343C48.5444 28.694 44.8504 37.3507 38.3578 41.2313C35.7086 42.7612 32.8354 43.5448 29.9996 43.5448Z" fill="#47B3CE"/>
<path d="M21.3055 49.8508C22.3771 49.8508 23.2458 48.982 23.2458 47.9104C23.2458 46.8388 22.3771 45.9702 21.3055 45.9702C20.2339 45.9702 19.3652 46.8388 19.3652 47.9104C19.3652 48.982 20.2339 49.8508 21.3055 49.8508Z" fill="#F4CF3B"/>
<path d="M83.1351 7.94777V27.7239H79.0306V25.3731C78.3963 26.194 77.5381 26.8284 76.4933 27.2761C75.4485 27.7612 74.3291 27.9851 73.1724 27.9851C71.6053 27.9851 70.2246 27.6493 68.9933 27.0149C67.762 26.3806 66.7918 25.4105 66.0829 24.1418C65.3739 22.8731 65.0381 21.3433 65.0381 19.5522V7.91046H69.1052V18.9179C69.1052 20.6717 69.553 22.0523 70.4485 22.9851C71.3441 23.9179 72.5381 24.403 74.0679 24.403C75.5978 24.403 76.8291 23.9179 77.7246 22.9851C78.6202 22.0523 79.0679 20.6717 79.0679 18.9179V7.91046H83.1351V7.94777Z" fill="white"/>
<path d="M105.299 17.0523C106.232 18.209 106.717 19.5523 106.717 21.0448C106.717 22.3134 106.381 23.4702 105.747 24.4776C105.075 25.4851 104.143 26.306 102.911 26.8657C101.68 27.4627 100.225 27.7612 98.5828 27.7612H88.6201V2.79852H98.135C99.8141 2.79852 101.307 3.09703 102.501 3.65673C103.732 4.21643 104.628 5.00002 105.262 5.97017C105.896 6.94031 106.195 8.02241 106.195 9.21644C106.195 10.6343 105.822 11.8657 105.038 12.7985C104.254 13.7687 103.247 14.4776 101.941 14.9254C103.21 15.1493 104.366 15.8582 105.299 17.0523ZM92.6127 13.2836H97.6873C99.0306 13.2836 100.075 12.9851 100.822 12.3508C101.568 11.7537 101.941 10.8582 101.941 9.70151C101.941 8.58211 101.568 7.68658 100.822 7.05225C100.075 6.41792 99.0306 6.0821 97.6873 6.0821H92.6127V13.2836ZM101.419 23.3955C102.202 22.7239 102.613 21.7911 102.613 20.597C102.613 19.3657 102.202 18.3955 101.344 17.6866C100.523 16.9776 99.4037 16.6045 98.0231 16.6045H92.65V24.403H98.1724C99.553 24.403 100.635 24.0672 101.419 23.3955Z" fill="white"/>
<path d="M117.613 8.47015C118.62 7.91045 119.777 7.61194 121.157 7.61194V11.8657H120.113C118.508 11.8657 117.277 12.2761 116.456 13.097C115.635 13.9179 115.225 15.3358 115.225 17.3507V27.7612H111.12V7.98507H115.225V10.8582C115.822 9.81344 116.643 9.02986 117.613 8.47015Z" fill="white"/>
<path d="M124.814 12.5C125.635 10.9702 126.755 9.77616 128.173 8.91795C129.59 8.05974 131.158 7.64929 132.911 7.64929C134.479 7.64929 135.822 7.9478 136.979 8.58213C138.135 9.17914 139.068 9.96273 139.777 10.8582V7.98511H143.919V27.7612H139.777V24.8135C139.068 25.7463 138.135 26.5299 136.941 27.1642C135.747 27.7985 134.367 28.097 132.837 28.097C131.12 28.097 129.59 27.6493 128.173 26.7911C126.755 25.9329 125.635 24.7015 124.814 23.1344C123.993 21.5672 123.583 19.7762 123.583 17.7985C123.583 15.7836 123.993 14.0299 124.814 12.5ZM138.919 14.2911C138.359 13.2836 137.613 12.5374 136.717 11.9777C135.822 11.4553 134.814 11.1941 133.77 11.1941C132.725 11.1941 131.755 11.4553 130.822 11.9777C129.926 12.5 129.18 13.2463 128.62 14.2538C128.061 15.2612 127.762 16.418 127.762 17.7985C127.762 19.1791 128.061 20.3732 128.62 21.3806C129.18 22.4254 129.926 23.209 130.859 23.7314C131.792 24.2538 132.762 24.5523 133.77 24.5523C134.814 24.5523 135.822 24.2911 136.717 23.7687C137.613 23.2463 138.359 22.4627 138.919 21.4553C139.479 20.4478 139.777 19.2538 139.777 17.8732C139.777 16.4553 139.479 15.2985 138.919 14.2911Z" fill="white"/>
<path d="M153.359 7.94775V27.7239H149.255V7.94775H153.359Z" fill="white"/>
<path d="M172.911 8.61941C174.142 9.25374 175.112 10.2239 175.784 11.4925C176.493 12.7612 176.829 14.2911 176.829 16.0821V27.7612H172.761V16.7164C172.761 14.9627 172.314 13.5821 171.418 12.6493C170.523 11.7164 169.329 11.2314 167.799 11.2314C166.269 11.2314 165.038 11.7164 164.142 12.6493C163.247 13.5821 162.799 14.9627 162.799 16.7164V27.7612H158.694V7.98508H162.799V10.2612C163.47 9.4403 164.329 8.80597 165.373 8.35821C166.418 7.91045 167.538 7.68657 168.694 7.68657C170.299 7.64926 171.679 7.94777 172.911 8.61941Z" fill="white"/>
<path d="M66.493 44.1045C65.9333 43.8433 65.5228 43.5075 65.2243 43.097C64.9258 42.6493 64.7393 42.1642 64.7393 41.6045H66.1945C66.2318 42.0896 66.4557 42.5 66.7915 42.8358C67.1273 43.1717 67.6497 43.3209 68.3214 43.3209C68.9557 43.3209 69.4781 43.1717 69.8512 42.8358C70.2243 42.5 70.4109 42.0896 70.4109 41.6045C70.4109 41.1941 70.299 40.8955 70.0751 40.6344C69.8512 40.3732 69.59 40.1866 69.2542 40.0746C68.9184 39.9627 68.4706 39.8135 67.9109 39.6642C67.2393 39.4776 66.6796 39.2911 66.2691 39.1418C65.8587 38.9552 65.4855 38.6941 65.187 38.2836C64.8885 37.9105 64.7393 37.3881 64.7393 36.7538C64.7393 36.1941 64.8885 35.6717 65.187 35.2612C65.4855 34.8135 65.896 34.4776 66.4184 34.2537C66.9408 34.0299 67.5378 33.8806 68.2094 33.8806C69.1796 33.8806 70.0005 34.1418 70.5975 34.6269C71.2318 35.112 71.5676 35.7463 71.6422 36.5672H70.1497C70.1124 36.1567 69.8885 35.8209 69.5154 35.5224C69.1422 35.2239 68.6572 35.0746 68.0602 35.0746C67.5005 35.0746 67.0154 35.2239 66.6796 35.5224C66.3064 35.8209 66.1572 36.2314 66.1572 36.7538C66.1572 37.1269 66.2691 37.4254 66.493 37.6866C66.7169 37.9105 66.9781 38.097 67.2766 38.2463C67.5751 38.3582 68.0228 38.5075 68.5825 38.6567C69.2542 38.8433 69.8139 39.0299 70.2243 39.2164C70.6348 39.403 71.0079 39.7015 71.3064 40.0746C71.6049 40.4478 71.7542 40.9702 71.7542 41.6418C71.7542 42.1642 71.6049 42.612 71.3437 43.0597C71.0825 43.5075 70.6721 43.8806 70.1497 44.1418C69.6273 44.403 68.993 44.5523 68.284 44.5523C67.6497 44.4776 67.0154 44.3657 66.493 44.1045Z" fill="#47B3CE"/>
<path d="M88.9187 33.9552V35.0746H86.0828V44.403H84.7022V35.0746H81.8291V33.9552H88.9187Z" fill="#47B3CE"/>
<path d="M100.598 33.9552V40.5597C100.598 41.4925 100.821 42.1642 101.269 42.6119C101.717 43.0597 102.351 43.2836 103.172 43.2836C103.956 43.2836 104.59 43.0597 105.038 42.6119C105.486 42.1642 105.71 41.4925 105.71 40.5597V33.9552H107.053V40.5224C107.053 41.3806 106.866 42.1268 106.53 42.7239C106.195 43.3209 105.71 43.7686 105.113 44.0671C104.516 44.3657 103.844 44.5149 103.098 44.5149C102.351 44.5149 101.68 44.3657 101.12 44.0671C100.523 43.7686 100.038 43.3209 99.7021 42.7239C99.3663 42.1268 99.1797 41.4179 99.1797 40.5224V33.9552H100.598Z" fill="#47B3CE"/>
<path d="M124.216 34.5895C125.037 35 125.672 35.6343 126.119 36.4179C126.567 37.2015 126.791 38.1343 126.791 39.2164C126.791 40.2985 126.567 41.194 126.119 41.9776C125.672 42.7612 125.037 43.3582 124.216 43.7686C123.396 44.1791 122.388 44.403 121.269 44.403H118.022V33.9552H121.269C122.425 33.9552 123.396 34.1418 124.216 34.5895ZM124.366 42.1642C125.075 41.4552 125.448 40.4477 125.448 39.1791C125.448 37.8731 125.075 36.8656 124.366 36.1567C123.657 35.4477 122.612 35.0746 121.306 35.0746H119.403V43.2836H121.306C122.612 43.2462 123.657 42.9104 124.366 42.1642Z" fill="#47B3CE"/>
<path d="M138.657 33.9552V44.3656H137.313V33.9552H138.657Z" fill="#47B3CE"/>
<path d="M151.716 43.806C150.933 43.3582 150.299 42.7239 149.813 41.903C149.366 41.0821 149.104 40.1866 149.104 39.1418C149.104 38.1343 149.328 37.2015 149.813 36.3806C150.261 35.5597 150.896 34.9254 151.716 34.4776C152.5 34.0298 153.396 33.806 154.366 33.806C155.336 33.806 156.231 34.0298 157.015 34.4776C157.799 34.9254 158.433 35.5597 158.918 36.3806C159.366 37.2015 159.59 38.097 159.59 39.1418C159.59 40.1866 159.366 41.0821 158.918 41.903C158.47 42.7239 157.836 43.3582 157.015 43.806C156.231 44.2537 155.336 44.4776 154.366 44.4776C153.396 44.4776 152.5 44.2537 151.716 43.806ZM156.343 42.7985C156.94 42.4627 157.388 41.9776 157.724 41.3433C158.06 40.7089 158.209 40 158.209 39.1418C158.209 38.3209 158.06 37.5746 157.724 36.9403C157.388 36.306 156.94 35.8209 156.343 35.4851C155.746 35.1493 155.112 34.9627 154.366 34.9627C153.619 34.9627 152.985 35.1493 152.388 35.4851C151.791 35.8209 151.343 36.306 151.007 36.9403C150.672 37.5746 150.522 38.2836 150.522 39.1418C150.522 39.9627 150.672 40.7089 151.007 41.3433C151.343 41.9776 151.791 42.4627 152.388 42.7985C152.985 43.1343 153.619 43.3209 154.366 43.3209C155.112 43.3209 155.746 43.1343 156.343 42.7985Z" fill="#47B3CE"/>
<path d="M171.53 44.1045C170.97 43.8433 170.56 43.5075 170.261 43.097C169.963 42.6493 169.776 42.1642 169.776 41.6045H171.232C171.269 42.0896 171.493 42.5 171.829 42.8358C172.164 43.1717 172.687 43.3209 173.358 43.3209C173.993 43.3209 174.515 43.1717 174.888 42.8358C175.261 42.5 175.448 42.0896 175.448 41.6045C175.448 41.1941 175.336 40.8955 175.112 40.6344C174.888 40.3732 174.627 40.1866 174.291 40.0746C173.955 39.9627 173.508 39.8135 172.948 39.6642C172.276 39.4776 171.717 39.2911 171.306 39.1418C170.896 38.9552 170.523 38.6941 170.224 38.2836C169.926 37.9105 169.776 37.3881 169.776 36.7538C169.776 36.1941 169.926 35.6717 170.224 35.2612C170.523 34.8135 170.933 34.4776 171.455 34.2537C171.978 34.0299 172.575 33.8806 173.247 33.8806C174.217 33.8806 175.038 34.1418 175.635 34.6269C176.269 35.112 176.605 35.7463 176.679 36.5672H175.187C175.149 36.1567 174.926 35.8209 174.552 35.5224C174.179 35.2239 173.694 35.0746 173.097 35.0746C172.538 35.0746 172.052 35.2239 171.717 35.5224C171.344 35.8209 171.194 36.2314 171.194 36.7538C171.194 37.1269 171.306 37.4254 171.53 37.6866C171.754 37.9105 172.015 38.097 172.314 38.2463C172.612 38.3582 173.06 38.5075 173.62 38.6567C174.291 38.8433 174.851 39.0299 175.261 39.2164C175.672 39.403 176.045 39.7015 176.344 40.0746C176.642 40.4478 176.791 40.9702 176.791 41.6418C176.791 42.1642 176.642 42.612 176.381 43.0597C176.12 43.5075 175.709 43.8806 175.187 44.1418C174.664 44.403 174.03 44.5523 173.321 44.5523C172.687 44.4776 172.09 44.3657 171.53 44.1045Z" fill="#47B3CE"/>
<path d="M149.478 4.58955C148.993 4.10448 148.731 3.47015 148.731 2.72388C148.731 1.97761 148.993 1.34328 149.478 0.858207C149.963 0.373132 150.597 0.111938 151.343 0.111938C152.052 0.111938 152.687 0.373132 153.172 0.858207C153.657 1.34328 153.918 1.97761 153.918 2.72388C153.918 3.47015 153.657 4.10448 153.172 4.58955C152.687 5.11194 152.052 5.33582 151.343 5.33582C150.597 5.33582 150 5.07462 149.478 4.58955Z" fill="#F4CF3B"/>
</g>
<defs>
<linearGradient id="paint0_linear_525_1551" x1="11.9804" y1="28.7516" x2="22.2788" y2="17.5169" gradientUnits="userSpaceOnUse">
<stop stop-color="#5E6AAE"/>
<stop offset="1" stop-color="#47B3CE"/>
</linearGradient>
<clipPath id="clip0_525_1551">
<rect width="176.866" height="50" fill="white"/>
</clipPath>
</defs>
</svg>
