<svg width="49" height="43" viewBox="0 0 49 43" fill="none" xmlns="http://www.w3.org/2000/svg">
<path d="M33.1699 26.2002H40.0843C41.4518 26.2002 42.7886 26.6058 43.9257 27.3655C45.0628 28.1253 45.949 29.2052 46.4723 30.4686C46.9956 31.732 47.1326 33.1223 46.8658 34.4635C46.599 35.8048 45.9405 37.0368 44.9735 38.0038C44.0065 38.9708 42.7745 39.6293 41.4332 39.8961C40.0919 40.1629 38.7017 40.026 37.4383 39.5026C36.1748 38.9793 35.095 38.0931 34.3352 36.956C33.5754 35.819 33.1699 34.4821 33.1699 33.1146V15.8287C33.1699 12.1611 34.6269 8.64372 37.2203 6.05034C39.8136 3.45695 43.331 2 46.9986 2" stroke="#F8D038" stroke-width="4" stroke-linecap="round" stroke-linejoin="round"/>
<path d="M40.0843 26.1999H33.1699V33.1143C33.1699 34.4818 33.5754 35.8186 34.3352 36.9557C35.095 38.0927 36.1748 38.979 37.4383 39.5023C38.7017 40.0256 40.0919 40.1626 41.4332 39.8958C42.7745 39.629 44.0065 38.9704 44.9735 38.0034C45.9405 37.0365 46.599 35.8044 46.8658 34.4632C47.1326 33.1219 46.9956 31.7317 46.4723 30.4682C45.949 29.2048 45.0628 28.1249 43.9257 27.3652C42.7886 26.6054 41.4518 26.1999 40.0843 26.1999Z" fill="#F8D038"/>
<path d="M2 26.2002H8.91436C10.2819 26.2002 11.6187 26.6058 12.7558 27.3655C13.8928 28.1253 14.7791 29.2052 15.3024 30.4686C15.8257 31.732 15.9626 33.1223 15.6959 34.4635C15.4291 35.8048 14.7705 37.0368 13.8035 38.0038C12.8366 38.9708 11.6045 39.6293 10.2633 39.8961C8.92203 40.1629 7.53178 40.026 6.26835 39.5026C5.00491 38.9793 3.92504 38.0931 3.16528 36.956C2.40552 35.819 2 34.4821 2 33.1146V15.8287C2 12.1611 3.45695 8.64372 6.05034 6.05034C8.64372 3.45695 12.1611 2 15.8287 2" stroke="#F8D038" stroke-width="4" stroke-linecap="round" stroke-linejoin="round"/>
<path d="M8.91436 26.1999H2V33.1143C2 34.4818 2.40552 35.8186 3.16528 36.9557C3.92504 38.0927 5.00491 38.979 6.26835 39.5023C7.53178 40.0256 8.92203 40.1626 10.2633 39.8958C11.6045 39.629 12.8366 38.9704 13.8035 38.0034C14.7705 37.0365 15.4291 35.8044 15.6959 34.4632C15.9626 33.1219 15.8257 31.7317 15.3024 30.4682C14.7791 29.2048 13.8928 28.1249 12.7558 27.3652C11.6187 26.6054 10.2819 26.1999 8.91436 26.1999Z" fill="#F8D038"/>
</svg>
