<svg width="54" height="52" viewBox="0 0 54 52" fill="none" xmlns="http://www.w3.org/2000/svg">
<path d="M53.7277 12.7113C52.3181 11.3036 47.1143 15.5251 40.7257 20.9304C34.3371 26.3356 29.6643 31.4287 29.6643 31.4287L32.3344 34.1025L35.0065 36.7726C35.0065 36.7726 40.1014 32.0984 45.5069 25.7112C50.9118 19.326 55.1337 14.1208 53.7276 12.7112L53.7277 12.7113Z" fill="url(#paint0_linear_3_181)"/>
<path d="M36.8653 38.7974L35.8748 39.7057C35.9484 41.8535 34.9806 44.5448 31.7391 46.1015C30.1017 46.8889 28.7233 47.1605 27.7188 47.3586C26.3601 47.6251 26.3601 47.6251 26.0129 48.3279C25.3907 49.585 24.2546 50.3371 22.978 50.3371C20.9427 50.3371 19.4101 48.6015 18.7718 45.5701C17.7023 40.4752 19.6344 34.0198 26.3319 31.0022L27.6452 29.5715C27.8397 29.3594 32.5089 24.2871 38.9551 18.8327C40.4786 17.5459 41.7884 16.4588 43.0017 15.4734C38.5274 6.12171 28.5901 0.735168 20.2326 0.735168C9.06302 0.735168 3.09801 6.69617 1.22956 11.477C-0.635983 16.2581 2.22907 19.9278 4.39951 21.4493C6.56832 22.9658 8.95442 24.2192 8.95442 26.2022C8.95442 28.1816 6.56992 29.4352 4.39951 30.9551C2.23071 32.4716 -0.635983 36.1462 1.22956 40.9239C3.09671 45.705 9.06312 51.6697 20.2326 51.6697C30.3573 51.6697 42.7672 43.7485 45.0054 30.4625C40.6399 35.3129 37.0458 38.6315 36.8653 38.7963L36.8653 38.7974ZM32.8329 13.5458C34.63 13.5458 36.085 15.0008 36.085 16.7979C36.085 18.595 34.63 20.05 32.8329 20.05C31.0374 20.05 29.5789 18.595 29.5789 16.7979C29.5789 15.0008 31.0375 13.5458 32.8329 13.5458ZM22.6391 7.64971C24.4346 7.64971 25.8912 9.1047 25.8912 10.9018C25.8912 12.6989 24.4342 14.1574 22.6391 14.1574C20.8419 14.1574 19.385 12.6988 19.385 10.9018C19.385 9.1048 20.842 7.64971 22.6391 7.64971ZM11.5756 41.4922C9.77851 41.4922 8.32162 40.0372 8.32162 38.2401C8.32162 36.4466 9.77861 34.988 11.5756 34.988C13.3711 34.988 14.8277 36.4466 14.8277 38.2401C14.8297 40.0372 13.3727 41.4922 11.5756 41.4922ZM11.5756 17.4147C9.77851 17.4147 8.32162 15.9598 8.32162 14.1626C8.32162 12.3655 9.77861 10.9086 11.5756 10.9086C13.3711 10.9086 14.8277 12.3636 14.8277 14.1607C14.8277 15.9579 13.3727 17.4147 11.5756 17.4147Z" fill="url(#paint1_linear_3_181)"/>
<path d="M23.5508 47.1078C25.0673 44.0431 27.0275 45.3193 30.5461 43.6294C34.0667 41.9376 32.985 38.8906 32.985 38.8906L27.5484 33.4556C17.5847 37.8417 22.0362 50.1724 23.5508 47.1078Z" fill="url(#paint2_linear_3_181)"/>
<defs>
<linearGradient id="paint0_linear_3_181" x1="29.6643" y1="12.4379" x2="57.483" y2="31.8117" gradientUnits="userSpaceOnUse">
<stop stop-color="#00ABFF"/>
<stop offset="1" stop-color="#028CFF"/>
</linearGradient>
<linearGradient id="paint1_linear_3_181" x1="0.626953" y1="0.735168" x2="55.6893" y2="34.1444" gradientUnits="userSpaceOnUse">
<stop stop-color="#00ABFF"/>
<stop offset="1" stop-color="#028CFF"/>
</linearGradient>
<linearGradient id="paint2_linear_3_181" x1="21.2436" y1="33.4556" x2="36.2762" y2="42.2669" gradientUnits="userSpaceOnUse">
<stop stop-color="#00ABFF"/>
<stop offset="1" stop-color="#028CFF"/>
</linearGradient>
</defs>
</svg>
