<svg width="66" height="61" viewBox="0 0 66 61" fill="none" xmlns="http://www.w3.org/2000/svg">
<path d="M19.8219 41.6338C21.3315 40.5616 21.7476 38.771 21.8621 38.0216L19.8324 36.1791L19.5827 35.95C19.51 35.9604 19.4267 35.9813 19.3535 36.0018C17.7402 36.4392 17.2196 38.1148 17.2091 38.1357C16.4389 40.2178 15.5645 41.5605 14.7942 42.4245C16.9282 42.7578 18.6146 42.4872 19.8219 41.6337V41.6338Z" fill="#B59AFF"/>
<path d="M23.1429 36.3562C24.1215 35.8046 25.641 34.5346 27.3066 32.9732L24.1628 30.1209C22.6741 32.0156 21.5914 33.5975 21.1649 34.5556L22.5076 35.7737L23.1429 36.3562Z" fill="#B59AFF"/>
<path d="M6.04594 48.9524H48.9589C49.5418 48.9524 49.9997 49.5248 49.9997 48.9524L50.0001 12.748H0.0438995V42.9503C0.0438995 46.2652 2.7311 48.9524 6.04594 48.9524ZM12.1506 41.9259C12.1401 41.9259 13.8266 41.3011 15.2421 37.4811C15.2526 37.4393 16.0542 34.7433 18.8125 33.9939C18.9375 33.9626 19.0521 33.9421 19.1767 33.9212C20.3426 31.1107 24.7041 26.1139 26.6611 23.9487C30.492 19.7222 35.6341 16.1101 37.8934 18.1503C40.1419 20.1906 37.0504 25.6661 33.2301 29.8924C33.0946 30.0384 31.5331 31.7558 29.6179 33.6296C29.6179 33.6401 29.6074 33.6401 29.6074 33.6505C29.597 33.661 29.5865 33.661 29.5761 33.6715C27.7022 35.493 25.506 37.4605 23.9446 38.2726C23.7986 39.3239 23.2262 41.7597 21.0613 43.3107C19.8331 44.1956 18.3026 44.643 16.502 44.643C15.1901 44.643 13.7224 44.4033 12.1195 43.935C11.6721 43.7995 11.3702 43.3834 11.3702 42.9251C11.3806 42.4459 11.7027 42.04 12.1506 41.9259Z" fill="url(#paint0_linear_3_185)"/>
<path d="M31.6896 28.4865C35.947 23.7916 37.0087 20.1381 36.499 19.6798C35.9888 19.2219 32.4703 20.6374 28.2129 25.3322C27.224 26.4253 26.3082 27.4767 25.4752 28.4865L28.8063 31.5052C29.7844 30.5267 30.7734 29.4963 31.6896 28.4865Z" fill="#B59AFF"/>
<path d="M30.4771 0.0268642L5.58414 0.0268555C2.52381 0.0268555 0.0429688 2.50772 0.0429688 5.56806V10.6656H49.9992V6.02647C49.9992 2.71293 47.3163 0.0268723 44.0028 0.026868C38.3995 0.0268607 30.8473 0.0268642 30.4771 0.0268642ZM7.44445 7.42801C6.29946 7.42801 5.36237 6.49132 5.36237 5.34593C5.36237 4.20094 6.29906 3.26385 7.44445 3.26385C8.58943 3.26385 9.52652 4.20054 9.52652 5.34593C9.52652 6.50174 8.5894 7.42801 7.44445 7.42801ZM15.3662 7.42801C14.2212 7.42801 13.2841 6.49132 13.2841 5.34593C13.2841 4.20094 14.2208 3.26385 15.3662 3.26385C16.5216 3.26385 17.4483 4.20054 17.4483 5.34593C17.4483 6.50174 16.5112 7.42801 15.3662 7.42801ZM23.288 7.42801C22.143 7.42801 21.2059 6.49132 21.2059 5.34593C21.2059 4.20094 22.1426 3.26385 23.288 3.26385C24.433 3.26385 25.3701 4.20054 25.3701 5.34593C25.3696 6.50174 24.4329 7.42801 23.288 7.42801Z" fill="#B59AFF"/>
<g filter="url(#filter0_bi_3_185)">
<path d="M36 37C36 34.2386 38.2386 32 41 32H61C63.7614 32 66 34.2386 66 37V56C66 58.7614 63.7614 61 61 61H52H41C38.2386 61 36 58.7614 36 56V37Z" fill="white" fill-opacity="0.19"/>
</g>
<path d="M45.4951 43.3687H56.7375" stroke="white" stroke-width="2.5" stroke-linecap="round"/>
<path d="M45.4951 49.9898H52.6153" stroke="white" stroke-width="2.5" stroke-linecap="round"/>
<defs>
<filter id="filter0_bi_3_185" x="30" y="6" width="42" height="61" filterUnits="userSpaceOnUse" color-interpolation-filters="sRGB">
<feFlood flood-opacity="0" result="BackgroundImageFix"/>
<feGaussianBlur in="BackgroundImage" stdDeviation="3"/>
<feComposite in2="SourceAlpha" operator="in" result="effect1_backgroundBlur_3_185"/>
<feBlend mode="normal" in="SourceGraphic" in2="effect1_backgroundBlur_3_185" result="shape"/>
<feColorMatrix in="SourceAlpha" type="matrix" values="0 0 0 0 0 0 0 0 0 0 0 0 0 0 0 0 0 0 127 0" result="hardAlpha"/>
<feOffset dy="-26"/>
<feGaussianBlur stdDeviation="17"/>
<feComposite in2="hardAlpha" operator="arithmetic" k2="-1" k3="1"/>
<feColorMatrix type="matrix" values="0 0 0 0 0.845833 0 0 0 0 0.845833 0 0 0 0 0.845833 0 0 0 0.25 0"/>
<feBlend mode="normal" in2="shape" result="effect2_innerShadow_3_185"/>
</filter>
<linearGradient id="paint0_linear_3_185" x1="25.022" y1="12.748" x2="25.022" y2="49.2068" gradientUnits="userSpaceOnUse">
<stop stop-color="#B59AFF"/>
<stop offset="1" stop-color="#A585FF"/>
</linearGradient>
</defs>
</svg>
