<svg width="20" height="20" viewBox="0 0 20 20" fill="none" xmlns="http://www.w3.org/2000/svg">
<path d="M2.5 15V5H6.25C6.91304 5 7.54893 5.26339 8.01777 5.73223C8.48661 6.20107 8.75 6.83696 8.75 7.5C8.75 8.16304 8.48661 8.79893 8.01777 9.26777C7.54893 9.73661 6.91304 10 6.25 10C6.91304 10 7.54893 10.2634 8.01777 10.7322C8.48661 11.2011 8.75 11.837 8.75 12.5C8.75 13.163 8.48661 13.7989 8.01777 14.2678C7.54893 14.7366 6.91304 15 6.25 15H2.5Z" stroke="white" stroke-width="1.5" stroke-linecap="round" stroke-linejoin="round"/>
<path d="M2.5 10H6.25" stroke="white" stroke-width="1.5" stroke-linecap="round" stroke-linejoin="round"/>
<path d="M11.6667 10.8333H17.5C17.5 10.0598 17.1927 9.31792 16.6457 8.77094C16.0987 8.22396 15.3569 7.91667 14.5833 7.91667C13.8098 7.91667 13.0679 8.22396 12.5209 8.77094C11.974 9.31792 11.6667 10.0598 11.6667 10.8333V12.5C11.7526 13.1239 12.0382 13.7032 12.4807 14.1513C12.9232 14.5994 13.4989 14.8923 14.1217 14.9861C14.7444 15.0798 15.3808 14.9695 15.9357 14.6716C16.4906 14.3737 16.9341 13.9042 17.2 13.3333" stroke="white" stroke-width="1.5" stroke-linecap="round" stroke-linejoin="round"/>
<path d="M13.3333 5H15.8333" stroke="white" stroke-width="1.5" stroke-linecap="round" stroke-linejoin="round"/>
</svg>
