<svg width="20" height="20" viewBox="0 0 20 20" fill="none" xmlns="http://www.w3.org/2000/svg">
<path d="M15 3.33333H4.99999C4.07952 3.33333 3.33333 4.07953 3.33333 5V15C3.33333 15.9205 4.07952 16.6667 4.99999 16.6667H15C15.9205 16.6667 16.6667 15.9205 16.6667 15V5C16.6667 4.07953 15.9205 3.33333 15 3.33333Z" stroke="white" stroke-width="1.5" stroke-linecap="round" stroke-linejoin="round"/>
<path d="M6.66667 9.16667V13.3333" stroke="white" stroke-width="1.5" stroke-linecap="round" stroke-linejoin="round"/>
<path d="M6.66667 6.66667V6.675" stroke="white" stroke-width="1.5" stroke-linecap="round" stroke-linejoin="round"/>
<path d="M10 13.3333V9.16667" stroke="white" stroke-width="1.5" stroke-linecap="round" stroke-linejoin="round"/>
<path d="M13.3333 13.3333V10.8333C13.3333 10.3913 13.1577 9.96738 12.8452 9.65482C12.5326 9.34226 12.1087 9.16667 11.6667 9.16667C11.2246 9.16667 10.8007 9.34226 10.4882 9.65482C10.1756 9.96738 10 10.3913 10 10.8333" stroke="white" stroke-width="1.5" stroke-linecap="round" stroke-linejoin="round"/>
</svg>
