<svg width="20" height="20" viewBox="0 0 20 20" fill="none" xmlns="http://www.w3.org/2000/svg">
<path d="M18.3333 3.34167C17.5 3.75 16.6833 3.91583 15.8333 4.16667C14.8992 3.1125 13.5142 3.05417 12.1833 3.5525C10.8525 4.05083 9.98083 5.26917 10 6.66667V7.5C7.29583 7.56917 4.8875 6.3375 3.33333 4.16667C3.33333 4.16667 -0.151667 10.3608 6.66667 13.3333C5.10667 14.3725 3.55083 15.0733 1.66667 15C4.42333 16.5025 7.4275 17.0192 10.0283 16.2642C13.0117 15.3975 15.4633 13.1617 16.4042 9.8125C16.6848 8.79389 16.8242 7.74155 16.8183 6.685C16.8167 6.4775 18.0767 4.375 18.3333 3.34083V3.34167Z" stroke="white" stroke-width="1.5" stroke-linecap="round" stroke-linejoin="round"/>
</svg>
