<svg width="30" height="30" viewBox="0 0 30 30" fill="none" xmlns="http://www.w3.org/2000/svg">
<path d="M15 16.25C17.0711 16.25 18.75 14.5711 18.75 12.5C18.75 10.4289 17.0711 8.75 15 8.75C12.9289 8.75 11.25 10.4289 11.25 12.5C11.25 14.5711 12.9289 16.25 15 16.25Z" fill="#E7F9FC" stroke="#41BCD7" stroke-width="1.5" stroke-linecap="round" stroke-linejoin="round"/>
<path d="M13 26.5L7.5 23.5L9 21L11.5 20H18L20.5 21L22.5 23.5L17.5 26L13 26.5Z" fill="white"/>
<path d="M7.70996 23.5613C8.01935 22.5315 8.65242 21.629 9.51527 20.9875C10.3781 20.346 11.4248 19.9997 12.5 20H17.5C18.5765 19.9996 19.6245 20.3467 20.4879 20.9897C21.3514 21.6327 21.9843 22.5372 22.2925 23.5687" stroke="#696969" stroke-width="1.5" stroke-linecap="round" stroke-linejoin="round"/>
<path d="M15 26.25C21.2132 26.25 26.25 21.2132 26.25 15C26.25 8.7868 21.2132 3.75 15 3.75C8.7868 3.75 3.75 8.7868 3.75 15C3.75 21.2132 8.7868 26.25 15 26.25Z" stroke="#696969" stroke-width="1.5" stroke-linecap="round" stroke-linejoin="round"/>
</svg>
