<?xml version="1.0" encoding="UTF-8"?>
<svg width="512px" height="186px" viewBox="0 0 512 186" version="1.1" xmlns="http://www.w3.org/2000/svg" xmlns:xlink="http://www.w3.org/1999/xlink">
    <title>Artboard</title>
    <defs>
        <linearGradient x1="31.7507806%" y1="73.0181239%" x2="59.8030306%" y2="43.8423112%" id="linearGradient-1">
            <stop stop-color="#5E6AAE" offset="0%"></stop>
            <stop stop-color="#47B3CE" offset="100%"></stop>
        </linearGradient>
    </defs>
    <g id="Artboard" stroke="none" stroke-width="1" fill="none" fill-rule="evenodd">
        <g id="Group-2" transform="translate(19.000000, 15.000000)" fill-rule="nonzero">
            <g id="ubrain-logo">
                <g id="Group" transform="translate(0.000000, 4.900000)">
                    <path d="M52.2304645,95 C45.0304645,95 37.5304645,93.8 30.4304645,91.3 C10.7304645,84.3 -0.6695355,68.6 0.0304645001,49.4 C0.7304645,29.2 15.9304645,6.4 48.1304645,1.2 L50.0304645,13.1 C21.0304645,17.8 12.5304645,38.4 12.1304645,49.8 C11.4304645,68.9 25.8304645,76.9 34.5304645,79.9 C52.4304645,86.2 74.0304645,82 82.7304645,70.5 C86.0304645,66.2 87.1304645,60.6 85.5304645,56.3 C84.1304645,52.4 81.3304645,49.5 77.8304645,48.1 C73.9304645,46.6 69.3304645,46.9 65.0304645,49 L59.7304645,38.2 C67.1304645,34.5 75.1304645,34.1 82.3304645,36.9 C89.1304645,39.6 94.2304645,45 96.9304645,52.1 C99.9304645,60.2 98.2304645,70.1 92.4304645,77.7 C83.9304645,88.9 68.6304645,95 52.2304645,95 Z" id="Path" fill="url(#linearGradient-1)"></path>
                    <path d="M79.5304645,111.5 C74.6304645,111.5 69.8304645,110.6 65.2304645,108.9 C54.4304645,104.9 46.0304645,96.5 42.7304645,86.5 C38.0304645,72.3 40.1304645,47.9 59.7304645,38.2 L61.3304645,37.5 L66.5304645,48.4 L65.0304645,49.1 C51.6304645,55.7 51.3304645,74.3 54.1304645,82.7 C56.3304645,89.3 62.0304645,94.8 69.4304645,97.6 C78.0304645,100.8 87.3304645,99.8 95.6304645,94.9 C108.630465,87.1 116.330465,68.7 113.530465,52.1 C110.230465,32.7 91.4304645,12 63.2304645,12 C58.6304645,12 54.3304645,12.3 50.2304645,13 L49.0304645,13.2 L46.6304645,1.4 L48.4304645,1.1 C53.1304645,0.3 58.1304645,0 63.3304645,0 C98.1304645,0 121.330465,25.8 125.530465,50.1 C129.230465,71.7 119.330465,94.9 101.930465,105.3 C94.8304645,109.4 87.1304645,111.5 79.5304645,111.5 Z" id="Path" fill="#47B3CE"></path>
                    <circle id="Oval" fill="#F4CF3B" cx="56.2304645" cy="123.2" r="5.2"></circle>
                </g>
                <g id="Group" transform="translate(172.630465, 0.000000)">
                    <g transform="translate(0.000000, 7.200000)">
                        <g transform="translate(0.800000, 0.000000)" fill="#FFFFFF">
                            <path d="M48.5,13.8 L48.5,66.8 L37.5,66.8 L37.5,60.5 C35.8,62.7 33.5,64.4 30.7,65.6 C27.9,66.9 24.9,67.5 21.8,67.5 C17.6,67.5 13.9,66.6 10.6,64.9 C7.3,63.2 4.7,60.6 2.8,57.2 C0.9,53.8 0,49.7 0,44.9 L0,13.7 L10.9,13.7 L10.9,43.2 C10.9,47.9 12.1,51.6 14.5,54.1 C16.9,56.6 20.1,57.9 24.2,57.9 C28.3,57.9 31.6,56.6 34,54.1 C36.4,51.6 37.6,47.9 37.6,43.2 L37.6,13.7 L48.5,13.7 L48.5,13.8 Z" id="Path"></path>
                            <path d="M107.9,38.2 C110.4,41.3 111.7,44.9 111.7,48.9 C111.7,52.3 110.8,55.4 109.1,58.1 C107.3,60.8 104.8,63 101.5,64.5 C98.2,66.1 94.3,66.9 89.9,66.9 L63.2,66.9 L63.2,0 L88.7,0 C93.2,0 97.2,0.8 100.4,2.3 C103.7,3.8 106.1,5.9 107.8,8.5 C109.5,11.1 110.3,14 110.3,17.2 C110.3,21 109.3,24.3 107.2,26.8 C105.1,29.4 102.4,31.3 98.9,32.5 C102.3,33.1 105.4,35 107.9,38.2 Z M73.9,28.1 L87.5,28.1 C91.1,28.1 93.9,27.3 95.9,25.6 C97.9,24 98.9,21.6 98.9,18.5 C98.9,15.5 97.9,13.1 95.9,11.4 C93.9,9.7 91.1,8.8 87.5,8.8 L73.9,8.8 L73.9,28.1 Z M97.5,55.2 C99.6,53.4 100.7,50.9 100.7,47.7 C100.7,44.4 99.6,41.8 97.3,39.9 C95.1,38 92.1,37 88.4,37 L74,37 L74,57.9 L88.8,57.9 C92.5,57.9 95.4,57 97.5,55.2 Z" id="Shape"></path>
                            <path d="M140.9,15.2 C143.6,13.7 146.7,12.9 150.4,12.9 L150.4,24.3 L147.6,24.3 C143.3,24.3 140,25.4 137.8,27.6 C135.6,29.8 134.5,33.6 134.5,39 L134.5,66.9 L123.5,66.9 L123.5,13.9 L134.5,13.9 L134.5,21.6 C136.1,18.8 138.3,16.7 140.9,15.2 Z" id="Path"></path>
                            <path d="M160.2,26 C162.4,21.9 165.4,18.7 169.2,16.4 C173,14.1 177.2,13 181.9,13 C186.1,13 189.7,13.8 192.8,15.5 C195.9,17.1 198.4,19.2 200.3,21.6 L200.3,13.9 L211.4,13.9 L211.4,66.9 L200.3,66.9 L200.3,59 C198.4,61.5 195.9,63.6 192.7,65.3 C189.5,67 185.8,67.8 181.7,67.8 C177.1,67.8 173,66.6 169.2,64.3 C165.4,62 162.4,58.7 160.2,54.5 C158,50.3 156.9,45.5 156.9,40.2 C156.9,34.8 158,30.1 160.2,26 Z M198,30.8 C196.5,28.1 194.5,26.1 192.1,24.6 C189.7,23.2 187,22.5 184.2,22.5 C181.4,22.5 178.8,23.2 176.3,24.6 C173.9,26 171.9,28 170.4,30.7 C168.9,33.4 168.1,36.5 168.1,40.2 C168.1,43.9 168.9,47.1 170.4,49.8 C171.9,52.6 173.9,54.7 176.4,56.1 C178.9,57.5 181.5,58.3 184.2,58.3 C187,58.3 189.7,57.6 192.1,56.2 C194.5,54.8 196.5,52.7 198,50 C199.5,47.3 200.3,44.1 200.3,40.4 C200.3,36.6 199.5,33.5 198,30.8 Z" id="Shape"></path>
                            <polygon id="Path" points="236.7 13.8 236.7 66.8 225.7 66.8 225.7 13.8"></polygon>
                            <path d="M289.1,15.6 C292.4,17.3 295,19.9 296.8,23.3 C298.7,26.7 299.6,30.8 299.6,35.6 L299.6,66.9 L288.7,66.9 L288.7,37.3 C288.7,32.6 287.5,28.9 285.1,26.4 C282.7,23.9 279.5,22.6 275.4,22.6 C271.3,22.6 268,23.9 265.6,26.4 C263.2,28.9 262,32.6 262,37.3 L262,66.9 L251,66.9 L251,13.9 L262,13.9 L262,20 C263.8,17.8 266.1,16.1 268.9,14.9 C271.7,13.7 274.7,13.1 277.8,13.1 C282.1,13 285.8,13.8 289.1,15.6 Z" id="Path"></path>
                        </g>
                        <g transform="translate(0.000000, 83.100000)" fill="#47B3CE">
                            <path d="M4.7,27.6 C3.2,26.9 2.1,26 1.3,24.9 C0.5,23.7 5.68434189e-14,22.4 5.68434189e-14,20.9 L3.9,20.9 C4,22.2 4.6,23.3 5.5,24.2 C6.4,25.1 7.8,25.5 9.6,25.5 C11.3,25.5 12.7,25.1 13.7,24.2 C14.7,23.3 15.2,22.2 15.2,20.9 C15.2,19.8 14.9,19 14.3,18.3 C13.7,17.6 13,17.1 12.1,16.8 C11.2,16.5 10,16.1 8.5,15.7 C6.7,15.2 5.2,14.7 4.1,14.3 C3,13.8 2,13.1 1.2,12 C0.4,11 5.68434189e-14,9.6 5.68434189e-14,7.9 C5.68434189e-14,6.4 0.4,5 1.2,3.9 C2,2.7 3.1,1.8 4.5,1.2 C5.9,0.6 7.5,0.2 9.3,0.2 C11.9,0.2 14.1,0.9 15.7,2.2 C17.4,3.5 18.3,5.2 18.5,7.4 L14.5,7.4 C14.4,6.3 13.8,5.4 12.8,4.6 C11.8,3.8 10.5,3.4 8.9,3.4 C7.4,3.4 6.1,3.8 5.2,4.6 C4.2,5.4 3.8,6.5 3.8,7.9 C3.8,8.9 4.1,9.7 4.7,10.4 C5.3,11 6,11.5 6.8,11.9 C7.6,12.2 8.8,12.6 10.3,13 C12.1,13.5 13.6,14 14.7,14.5 C15.8,15 16.8,15.8 17.6,16.8 C18.4,17.8 18.8,19.2 18.8,21 C18.8,22.4 18.4,23.6 17.7,24.8 C17,26 15.9,27 14.5,27.7 C13.1,28.4 11.4,28.8 9.5,28.8 C7.8,28.6 6.1,28.3 4.7,27.6 Z" id="Path"></path>
                            <polygon id="Path" points="64.8 0.4 64.8 3.4 57.2 3.4 57.2 28.4 53.5 28.4 53.5 3.4 45.8 3.4 45.8 0.4"></polygon>
                            <path d="M96.1,0.4 L96.1,18.1 C96.1,20.6 96.7,22.4 97.9,23.6 C99.1,24.8 100.8,25.4 103,25.4 C105.1,25.4 106.8,24.8 108,23.6 C109.2,22.4 109.8,20.6 109.8,18.1 L109.8,0.4 L113.4,0.4 L113.4,18 C113.4,20.3 112.9,22.3 112,23.9 C111.1,25.5 109.8,26.7 108.2,27.5 C106.6,28.3 104.8,28.7 102.8,28.7 C100.8,28.7 99,28.3 97.5,27.5 C95.9,26.7 94.6,25.5 93.7,23.9 C92.8,22.3 92.3,20.4 92.3,18 L92.3,0.4 L96.1,0.4 Z" id="Path"></path>
                            <path d="M159.4,2.1 C161.6,3.2 163.3,4.9 164.5,7 C165.7,9.1 166.3,11.6 166.3,14.5 C166.3,17.4 165.7,19.8 164.5,21.9 C163.3,24 161.6,25.6 159.4,26.7 C157.2,27.8 154.5,28.4 151.5,28.4 L142.8,28.4 L142.8,0.4 L151.5,0.4 C154.6,0.4 157.2,0.9 159.4,2.1 Z M159.8,22.4 C161.7,20.5 162.7,17.8 162.7,14.4 C162.7,10.9 161.7,8.2 159.8,6.3 C157.9,4.4 155.1,3.4 151.6,3.4 L146.5,3.4 L146.5,25.4 L151.6,25.4 C155.1,25.3 157.9,24.4 159.8,22.4 Z" id="Shape"></path>
                            <polygon id="Path" points="198.1 0.4 198.1 28.3 194.5 28.3 194.5 0.4"></polygon>
                            <path d="M233.1,26.8 C231,25.6 229.3,23.9 228,21.7 C226.8,19.5 226.1,17.1 226.1,14.3 C226.1,11.6 226.7,9.1 228,6.9 C229.2,4.7 230.9,3 233.1,1.8 C235.2,0.6 237.6,-5.68434189e-14 240.2,-5.68434189e-14 C242.8,-5.68434189e-14 245.2,0.6 247.3,1.8 C249.4,3 251.1,4.7 252.4,6.9 C253.6,9.1 254.2,11.5 254.2,14.3 C254.2,17.1 253.6,19.5 252.4,21.7 C251.2,23.9 249.5,25.6 247.3,26.8 C245.2,28 242.8,28.6 240.2,28.6 C237.6,28.6 235.2,28 233.1,26.8 Z M245.5,24.1 C247.1,23.2 248.3,21.9 249.2,20.2 C250.1,18.5 250.5,16.6 250.5,14.3 C250.5,12.1 250.1,10.1 249.2,8.4 C248.3,6.7 247.1,5.4 245.5,4.5 C243.9,3.6 242.2,3.1 240.2,3.1 C238.2,3.1 236.5,3.6 234.9,4.5 C233.3,5.4 232.1,6.7 231.2,8.4 C230.3,10.1 229.9,12 229.9,14.3 C229.9,16.5 230.3,18.5 231.2,20.2 C232.1,21.9 233.3,23.2 234.9,24.1 C236.5,25 238.2,25.5 240.2,25.5 C242.2,25.5 243.9,25 245.5,24.1 Z" id="Shape"></path>
                            <path d="M286.2,27.6 C284.7,26.9 283.6,26 282.8,24.9 C282,23.7 281.5,22.4 281.5,20.9 L285.4,20.9 C285.5,22.2 286.1,23.3 287,24.2 C287.9,25.1 289.3,25.5 291.1,25.5 C292.8,25.5 294.2,25.1 295.2,24.2 C296.2,23.3 296.7,22.2 296.7,20.9 C296.7,19.8 296.4,19 295.8,18.3 C295.2,17.6 294.5,17.1 293.6,16.8 C292.7,16.5 291.5,16.1 290,15.7 C288.2,15.2 286.7,14.7 285.6,14.3 C284.5,13.8 283.5,13.1 282.7,12 C281.9,11 281.5,9.6 281.5,7.9 C281.5,6.4 281.9,5 282.7,3.9 C283.5,2.7 284.6,1.8 286,1.2 C287.4,0.6 289,0.2 290.8,0.2 C293.4,0.2 295.6,0.9 297.2,2.2 C298.9,3.5 299.8,5.2 300,7.4 L296,7.4 C295.9,6.3 295.3,5.4 294.3,4.6 C293.3,3.8 292,3.4 290.4,3.4 C288.9,3.4 287.6,3.8 286.7,4.6 C285.7,5.4 285.3,6.5 285.3,7.9 C285.3,8.9 285.6,9.7 286.2,10.4 C286.8,11 287.5,11.5 288.3,11.9 C289.1,12.2 290.3,12.6 291.8,13 C293.6,13.5 295.1,14 296.2,14.5 C297.3,15 298.3,15.8 299.1,16.8 C299.9,17.8 300.3,19.2 300.3,21 C300.3,22.4 299.9,23.6 299.2,24.8 C298.5,26 297.4,27 296,27.7 C294.6,28.4 292.9,28.8 291,28.8 C289.3,28.6 287.7,28.3 286.2,27.6 Z" id="Path"></path>
                        </g>
                    </g>
                    <path d="M227.1,12 C225.8,10.7 225.1,9 225.1,7 C225.1,5 225.8,3.3 227.1,2 C228.4,0.7 230.1,0 232.1,0 C234,0 235.7,0.7 237,2 C238.3,3.3 239,5 239,7 C239,9 238.3,10.7 237,12 C235.7,13.4 234,14 232.1,14 C230.1,14 228.5,13.3 227.1,12 Z" id="Path" fill="#F4CF3B"></path>
                </g>
            </g>
            <g id="PVT.-LTD." transform="translate(385.177734, 144.757812)" fill="#FFFFFF">
                <path d="M1.21875,5.62402344 L1.21875,9.2421875 L0,9.2421875 L0,0 L3.40869141,0 C4.42008464,0 5.21248372,0.258138021 5.78588867,0.774414062 C6.35929362,1.2906901 6.64599609,1.97412109 6.64599609,2.82470703 C6.64599609,3.72184245 6.36564128,4.41267904 5.80493164,4.8972168 C5.24422201,5.38175456 4.44124349,5.62402344 3.39599609,5.62402344 L1.21875,5.62402344 Z M1.21875,4.62744141 L3.40869141,4.62744141 C4.06038411,4.62744141 4.55973307,4.47403971 4.90673828,4.16723633 C5.25374349,3.86043294 5.42724609,3.41715495 5.42724609,2.83740234 C5.42724609,2.28727214 5.25374349,1.84716797 4.90673828,1.51708984 C4.55973307,1.18701172 4.08365885,1.015625 3.47851562,1.00292969 L1.21875,1.00292969 L1.21875,4.62744141 Z" id="Shape"></path>
                <polygon id="Path" points="15.2607422 7.62353516 17.9013672 0 19.234375 0 15.8066406 9.2421875 14.7275391 9.2421875 11.3061523 0 12.6328125 0"></polygon>
                <polygon id="Path" points="30.8579102 1.00292969 27.887207 1.00292969 27.887207 9.2421875 26.6748047 9.2421875 26.6748047 1.00292969 23.7104492 1.00292969 23.7104492 0 30.8579102 0"></polygon>
                <path d="M34.6865234,8.62646484 C34.6865234,8.42333984 34.7468262,8.25406901 34.8674316,8.11865234 C34.9880371,7.98323568 35.1689453,7.91552734 35.4101562,7.91552734 C35.6513672,7.91552734 35.8343913,7.98323568 35.9592285,8.11865234 C36.0840658,8.25406901 36.1464844,8.42333984 36.1464844,8.62646484 C36.1464844,8.8211263 36.0840658,8.98404948 35.9592285,9.11523438 C35.8343913,9.24641927 35.6513672,9.31201172 35.4101562,9.31201172 C35.1689453,9.31201172 34.9880371,9.24641927 34.8674316,9.11523438 C34.7468262,8.98404948 34.6865234,8.8211263 34.6865234,8.62646484 Z" id="Path"></path>
                <polygon id="Path" points="50.7099609 8.24560547 55.0898438 8.24560547 55.0898438 9.2421875 49.4848633 9.2421875 49.4848633 0 50.7099609 0"></polygon>
                <polygon id="Path" points="65.1201172 1.00292969 62.1494141 1.00292969 62.1494141 9.2421875 60.9370117 9.2421875 60.9370117 1.00292969 57.9726562 1.00292969 57.9726562 0 65.1201172 0"></polygon>
                <path d="M70.4912109,9.2421875 L70.4912109,0 L73.1000977,0 C73.9041341,0 74.6150716,0.177734375 75.2329102,0.533203125 C75.8507487,0.888671875 76.3278809,1.39436849 76.6643066,2.05029297 C77.0007324,2.70621745 77.1710612,3.45947266 77.175293,4.31005859 L77.175293,4.90039062 C77.175293,5.77213542 77.0070801,6.53597005 76.6706543,7.19189453 C76.3342285,7.84781901 75.8539225,8.35139974 75.2297363,8.70263672 C74.6055501,9.0538737 73.8787435,9.23372396 73.0493164,9.2421875 L70.4912109,9.2421875 Z M71.7099609,1.00292969 L71.7099609,8.24560547 L72.9921875,8.24560547 C73.9316406,8.24560547 74.662679,7.95361328 75.1853027,7.36962891 C75.7079264,6.78564453 75.9692383,5.95410156 75.9692383,4.875 L75.9692383,4.33544922 C75.9692383,3.28597005 75.7227376,2.47029622 75.2297363,1.88842773 C74.736735,1.30655924 74.0374349,1.01139323 73.1318359,1.00292969 L71.7099609,1.00292969 Z" id="Shape"></path>
                <path d="M82.2099609,8.62646484 C82.2099609,8.42333984 82.2702637,8.25406901 82.3908691,8.11865234 C82.5114746,7.98323568 82.6923828,7.91552734 82.9335938,7.91552734 C83.1748047,7.91552734 83.3578288,7.98323568 83.482666,8.11865234 C83.6075033,8.25406901 83.6699219,8.42333984 83.6699219,8.62646484 C83.6699219,8.8211263 83.6075033,8.98404948 83.482666,9.11523438 C83.3578288,9.24641927 83.1748047,9.31201172 82.9335938,9.31201172 C82.6923828,9.31201172 82.5114746,9.24641927 82.3908691,9.11523438 C82.2702637,8.98404948 82.2099609,8.8211263 82.2099609,8.62646484 Z" id="Path"></path>
            </g>
        </g>
    </g>
</svg>